<svg width="716" height="716" viewBox="0 0 716 716" fill="none" xmlns="http://www.w3.org/2000/svg">
<path d="M45.9722 596.679C128.199 596.679 210.425 596.679 292.652 596.679C374.458 596.679 456.265 596.679 538.074 596.679C584.22 596.679 630.366 596.679 676.518 596.679C677.668 596.679 677.668 594.889 676.518 594.889C594.29 594.889 512.063 594.889 429.836 594.889C348.029 594.889 266.222 594.889 184.414 594.889C138.267 594.889 92.12 594.889 45.9722 594.889C44.8204 594.889 44.8187 596.679 45.9722 596.679Z" fill="#1B1C1D"/>
<path d="M139.227 623.032C147.344 631.205 153.226 640.252 171.043 649.264C235.145 681.698 284.74 682.138 358.188 682.711C431.637 683.284 539.163 655.155 587.146 613.74C555.534 615.54 523.918 617.335 492.307 619.13C373.835 625.856 254.672 632.581 136.386 624.229" fill="#CDD3B1"/>
<path d="M418.353 180.721C447.537 152.711 482.545 112.31 506.12 79.4402" stroke="#3D907E" stroke-width="1.33333" stroke-miterlimit="10" stroke-linecap="round" stroke-linejoin="round"/>
<path d="M477.549 115.421L479.093 84.9994" stroke="#3D907E" stroke-width="1.33333" stroke-miterlimit="10" stroke-linecap="round" stroke-linejoin="round"/>
<path d="M496.562 121.981C480.286 127.357 483.652 125.648 466.814 128.854" stroke="#3D907E" stroke-width="1.33333" stroke-miterlimit="10" stroke-linecap="round" stroke-linejoin="round"/>
<path d="M508.565 70.1393C504.676 68.9994 500.599 71.2277 499.458 75.1171C498.316 79.0065 500.544 83.0846 504.434 84.2246C508.323 85.3656 512.4 83.1378 513.541 79.2484C514.681 75.359 512.457 71.2809 508.565 70.1393Z" fill="#F8A264"/>
<path d="M497.985 114.292C493.863 113.084 489.54 115.445 488.332 119.566C487.123 123.689 489.485 128.011 493.606 129.219C497.729 130.428 502.051 128.066 503.259 123.945C504.468 119.823 502.106 115.502 497.985 114.292Z" fill="#F8A264"/>
<path d="M483.061 78.3376C480.052 76.4601 476.091 77.3781 474.216 80.3853C472.338 83.3941 473.256 87.3551 476.265 89.231C479.274 91.1084 483.232 90.1904 485.11 87.1817C486.986 84.173 486.068 80.2135 483.061 78.3376Z" fill="#F8A264"/>
<path d="M496.275 339.711C507.018 334.007 520.276 333.278 531.579 337.771C533.839 338.67 536.064 339.792 537.783 341.509C539.501 343.226 540.672 345.622 540.457 348.042C525.508 351.497 509.23 348.818 496.176 340.749" fill="#3D907E"/>
<path d="M513.019 308.115C500.576 323.718 491.401 341.734 486.15 360.991C485.846 362.104 487.571 362.579 487.875 361.467C493.041 342.523 502.039 324.735 514.287 309.381C514.998 308.489 513.735 307.214 513.019 308.115Z" fill="#3D907E"/>
<path d="M515.852 287.129C514.932 294.668 515.847 300.985 517.903 301.236C519.954 301.486 522.363 295.576 523.284 288.037C524.204 280.496 523.289 274.181 521.233 273.93C519.182 273.68 516.773 279.589 515.852 287.129Z" fill="white"/>
<path d="M523.181 287.995C518.614 294.064 516.251 299.993 517.903 301.236C519.55 302.477 524.593 298.565 529.16 292.496C533.727 286.426 536.09 280.499 534.443 279.256C532.791 278.013 527.748 281.925 523.181 287.995Z" fill="white"/>
<path d="M529.093 292.409C522.102 295.382 517.09 299.333 517.903 301.236C518.711 303.137 525.033 302.27 532.024 299.297C539.015 296.324 544.022 292.371 543.214 290.47C542.406 288.568 536.085 289.436 529.093 292.409Z" fill="white"/>
<path d="M532.008 299.186C524.465 298.266 518.154 299.184 517.903 301.236C517.653 303.286 523.56 305.696 531.098 306.617C538.642 307.538 544.958 306.621 545.203 304.569C545.454 302.517 539.547 300.107 532.008 299.186Z" fill="white"/>
<path d="M531.144 306.514C525.073 301.947 519.146 299.583 517.903 301.236C516.66 302.886 520.573 307.929 526.638 312.495C532.709 317.062 538.637 319.426 539.879 317.775C541.122 316.123 537.21 311.082 531.144 306.514Z" fill="white"/>
<path d="M526.731 312.427C523.754 305.437 519.801 300.426 517.903 301.236C516.001 302.043 516.865 308.367 519.836 315.357C522.813 322.346 526.766 327.358 528.664 326.549C530.571 325.74 529.702 319.418 526.731 312.427Z" fill="white"/>
<path d="M519.949 315.341C520.87 307.801 519.954 301.486 517.903 301.235C515.847 300.985 513.438 306.893 512.518 314.434C511.597 321.974 512.518 328.289 514.569 328.54C516.62 328.79 519.028 322.88 519.949 315.341Z" fill="white"/>
<path d="M512.62 314.476C517.187 308.406 519.55 302.477 517.903 301.236C516.251 299.993 511.208 303.905 506.64 309.975C502.074 316.044 499.709 321.972 501.362 323.215C503.013 324.457 508.055 320.545 512.62 314.476Z" fill="white"/>
<path d="M506.709 310.062C513.699 307.09 518.711 303.138 517.903 301.236C517.09 299.332 510.77 300.2 503.779 303.173C496.789 306.146 491.779 310.098 492.588 312C493.397 313.903 499.719 313.034 506.709 310.062Z" fill="white"/>
<path d="M503.795 303.283C511.335 304.204 517.653 303.286 517.903 301.236C518.154 299.184 512.242 296.773 504.703 295.853C497.162 294.932 490.847 295.85 490.596 297.9C490.345 299.952 496.255 302.363 503.795 303.283Z" fill="white"/>
<path d="M504.661 295.956C510.73 300.523 516.66 302.887 517.903 301.236C519.146 299.583 515.228 294.542 509.162 289.974C503.092 285.408 497.165 283.044 495.922 284.696C494.679 286.347 498.591 291.389 504.661 295.956Z" fill="white"/>
<path d="M509.074 290.043C512.047 297.033 516.001 302.043 517.903 301.235C519.801 300.426 518.936 294.104 515.965 287.113C512.988 280.124 509.039 275.113 507.136 275.921C505.234 276.73 506.102 283.052 509.074 290.043Z" fill="white"/>
<path d="M513.086 301.914C513.464 304.574 515.924 306.425 518.583 306.05C521.243 305.675 523.089 303.214 522.716 300.555C522.342 297.896 519.882 296.045 517.223 296.419C514.564 296.796 512.712 299.256 513.086 301.914Z" fill="#F8A264"/>
<path d="M493.454 219.687C492.936 211.433 494.067 203.079 496.761 195.26C497.917 191.905 499.451 188.52 502.192 186.266C504.933 184.012 509.163 183.232 512.037 185.309C514.456 187.057 515.336 190.369 514.917 193.322C514.502 196.276 513.009 198.956 511.459 201.505C506.023 210.454 499.572 218.736 493.135 226.997" fill="#F8A264"/>
<path d="M538.892 225.049C538.181 222.152 535.44 220.095 532.551 219.372C529.656 218.648 526.608 219.024 523.667 219.501C513.331 221.176 503.23 224.045 493.158 226.906L500.051 229.356C507.505 232.938 515.673 235.029 523.928 235.469C527.472 235.659 531.19 235.508 534.31 233.815C537.424 232.122 539.736 228.496 538.892 225.049Z" fill="#F8A264"/>
<path d="M493.135 226.997C496.557 222.093 501.581 215.752 505.14 210.731C508.698 205.71 513.229 201.245 518.947 198.972C521.836 197.825 525.278 197.44 527.932 199.05C532.034 201.533 532.315 207.776 529.753 211.832C527.196 215.886 522.706 218.242 518.384 220.318C509.967 224.359 502.466 226.704 493.135 226.997Z" fill="#F8A264"/>
<path d="M509.57 228.545C509.259 227.887 508.914 227.122 506.946 226.655C503.033 225.726 501.425 225.514 497.985 225.202C500.779 224.99 503.853 223.62 506.44 222.538C507.555 222.073 509.1 219.945 508.856 218.759C508.6 217.531 506.971 217.249 505.724 217.393C501.87 217.841 498.217 219.825 495.741 222.81C497.411 219.689 497.914 215.958 497.127 212.505C496.935 211.658 496.56 210.715 495.734 210.448C495.066 210.232 494.318 210.568 493.858 211.098C493.398 211.628 493.174 212.317 492.988 212.993C491.734 217.548 491.814 222.46 493.214 226.972C497.953 229.561 499.098 230.426 507.168 232.252C507.753 232.383 508.645 232.199 509.358 231.201C509.779 230.609 509.88 229.2 509.57 228.545Z" fill="#3D907E"/>
<path d="M423.865 313.728C425.251 305.999 432.511 270.972 468.916 242.046C480.121 233.142 494.471 224.806 498.406 225.332" stroke="#3D907E" stroke-width="1.33333" stroke-miterlimit="10" stroke-linecap="round" stroke-linejoin="round"/>
<path d="M474.606 237.552C483.688 258.488 507.71 271.456 531.292 268.156C524.419 246.462 499.684 233.87 474.606 237.552Z" fill="#3D907E"/>
<path d="M276.732 281.749C261.417 244.309 236.722 196.897 214.826 162.886" stroke="#3D907E" stroke-width="1.33333" stroke-miterlimit="10" stroke-linecap="round" stroke-linejoin="round"/>
<path d="M237.778 202.687L210.054 190.064" stroke="#3D907E" stroke-width="1.33333" stroke-miterlimit="10" stroke-linecap="round" stroke-linejoin="round"/>
<path d="M250.869 187.419C249.884 204.533 249.533 200.772 246.321 217.611" stroke="#3D907E" stroke-width="1.33333" stroke-miterlimit="10" stroke-linecap="round" stroke-linejoin="round"/>
<path d="M207.076 157.192C204.584 160.39 205.157 165.001 208.354 167.493C211.551 169.983 216.163 169.412 218.654 166.214C221.145 163.016 220.572 158.405 217.376 155.914C214.179 153.423 209.568 153.995 207.076 157.192Z" fill="#F8A264"/>
<path d="M244.243 183.269C241.603 186.657 242.21 191.544 245.598 194.183C248.986 196.824 253.874 196.217 256.514 192.829C259.155 189.441 258.548 184.553 255.159 181.914C251.771 179.274 246.884 179.879 244.243 183.269Z" fill="#F8A264"/>
<path d="M205.319 183.925C202.468 186.031 201.863 190.051 203.972 192.903C206.079 195.754 210.099 196.357 212.95 194.251C215.801 192.143 216.405 188.123 214.297 185.272C212.19 182.419 208.17 181.817 205.319 183.925Z" fill="#F8A264"/>
<path d="M507.203 517.694C544.201 501.343 590.91 475.338 624.296 452.502" stroke="#3D907E" stroke-width="1.33333" stroke-miterlimit="10" stroke-linecap="round" stroke-linejoin="round"/>
<path d="M585.151 476.554L596.996 448.491" stroke="#3D907E" stroke-width="1.33333" stroke-miterlimit="10" stroke-linecap="round" stroke-linejoin="round"/>
<path d="M600.775 489.216C583.642 488.707 587.391 488.252 570.468 485.509" stroke="#3D907E" stroke-width="1.33333" stroke-miterlimit="10" stroke-linecap="round" stroke-linejoin="round"/>
<path d="M629.768 444.598C626.505 442.196 621.913 442.896 619.509 446.163C617.11 449.428 617.811 454.021 621.074 456.423C624.342 458.825 628.934 458.123 631.338 454.858C633.737 451.593 633.036 446.999 629.768 444.598Z" fill="#F8A264"/>
<path d="M604.739 482.477C601.281 479.932 596.413 480.675 593.866 484.135C591.324 487.596 592.066 492.463 595.523 495.01C598.985 497.554 603.854 496.811 606.396 493.35C608.943 489.89 608.201 485.021 604.739 482.477Z" fill="#F8A264"/>
<path d="M603 443.585C600.816 440.794 596.781 440.303 593.988 442.488C591.196 444.675 590.705 448.71 592.889 451.501C595.078 454.293 599.113 454.785 601.905 452.598C604.693 450.413 605.184 446.377 603 443.585Z" fill="#F8A264"/>
<path d="M214.16 467.024C183.714 440.39 140.42 409.031 105.622 388.405" stroke="#3D907E" stroke-width="1.33333" stroke-miterlimit="10" stroke-linecap="round" stroke-linejoin="round"/>
<path d="M143.953 413.738L113.513 414.847" stroke="#3D907E" stroke-width="1.33333" stroke-miterlimit="10" stroke-linecap="round" stroke-linejoin="round"/>
<path d="M96.1445 386.78C95.3466 390.754 97.9212 394.623 101.895 395.421C105.869 396.219 109.738 393.644 110.536 389.67C111.333 385.696 108.759 381.828 104.785 381.031C100.811 380.232 96.9423 382.806 96.1445 386.78Z" fill="#F8A264"/>
<path d="M106.531 411.475C104.923 414.636 106.181 418.5 109.341 420.109C112.502 421.715 116.367 420.457 117.975 417.298C119.583 414.137 118.324 410.272 115.163 408.664C112.003 407.056 108.138 408.315 106.531 411.475Z" fill="#F8A264"/>
<path d="M338.833 105.696C332.557 103.252 326.773 99.5557 321.918 94.8874C319.835 92.8841 317.859 90.5899 317.132 87.7918C316.405 84.9948 317.277 81.6025 319.799 80.1894C321.917 79.0009 324.663 79.4878 326.704 80.8062C328.743 82.1267 330.212 84.1474 331.565 86.165C336.316 93.2462 340.226 100.852 344.124 108.436" fill="#F8A264"/>
<path d="M358.358 73.9587C355.974 73.4918 353.516 74.8123 351.991 76.7025C350.465 78.5928 349.7 80.9714 349.044 83.3097C346.742 91.5207 345.401 99.9669 344.065 108.388L348.238 104.134C353.436 99.8523 357.78 94.535 360.933 88.5835C362.286 86.0305 363.447 83.234 363.264 80.3495C363.082 77.4656 361.195 74.5157 358.358 73.9587Z" fill="#F8A264"/>
<path d="M344.124 108.436C341.674 104.227 338.708 98.3441 336.218 93.9949C333.726 89.6447 331.979 84.7688 332.258 79.7655C332.4 77.2395 333.295 74.5642 335.393 73.1522C338.634 70.9714 343.344 72.9016 345.461 76.1824C347.579 79.4647 347.784 83.5874 347.837 87.4937C347.94 95.0966 347.104 101.44 344.124 108.436Z" fill="#F8A264"/>
<path d="M350.897 96.8231C350.306 96.8277 349.623 96.8191 348.603 98.1135C346.576 100.687 345.869 101.802 344.46 104.237C345.261 102.1 345.301 99.3578 345.388 97.0783C345.425 96.0944 344.382 94.223 343.422 93.9995C342.427 93.7674 341.661 94.8746 341.342 95.8453C340.352 98.8453 340.565 102.225 341.924 105.076C340.19 102.773 337.605 101.124 334.784 100.522C334.093 100.374 333.266 100.327 332.787 100.847C332.398 101.265 332.391 101.935 332.625 102.456C332.86 102.977 333.291 103.379 333.728 103.748C336.663 106.234 340.32 107.858 344.133 108.37C347.67 105.753 348.701 105.205 352.813 99.8661C353.111 99.481 353.28 98.7563 352.786 97.889C352.494 97.3745 351.488 96.8175 350.897 96.8231Z" fill="#3D907E"/>
<path d="M314.232 239.449C310.161 193.214 294.299 149.488 269.152 112.399" stroke="#3D907E" stroke-miterlimit="10"/>
<path d="M256.805 95.6162C259.248 137.568 279.677 140.166 291.708 155.572C298.274 164.133 295.309 165.589 293.71 154.696C291.063 137.662 296.496 108.508 256.805 95.6162Z" fill="#3D907E"/>
<path d="M301.769 178.868C297.048 163.932 274.436 141.328 245.81 146.329C246.628 151.584 252.449 156.643 257.409 159.296C279.82 171.346 296.003 162.426 301.769 178.868Z" fill="#3D907E"/>
<path d="M301.769 178.868C296.714 162.977 297.587 128.827 311.168 108.082C319.428 115.438 323.711 137.478 304.177 162.466C299.804 168.008 300.978 176.61 301.769 178.868Z" fill="#3D907E"/>
<path d="M309.872 209.272C306.213 191.641 285.264 168.811 258.065 170.419C258.089 173.789 260.92 178.015 263.229 180.529C279.581 197.649 305.998 191.59 309.872 209.272Z" fill="#3D907E"/>
<path d="M309.872 209.272C306.738 194.304 311.098 159.647 327.45 140.081C329.39 142.374 331.871 147.95 332.17 154.301C334.107 183.117 305.888 191.092 309.872 209.272Z" fill="#3D907E"/>
<path d="M252.572 444.384C225.251 411.176 190.23 386.058 151.587 370.878" stroke="#3D907E" stroke-miterlimit="10"/>
<path d="M133.36 364.516C157.195 395.302 174.17 386.591 191.435 392.067C200.937 395.172 199.432 397.838 192.506 390.349C181.563 378.715 170.449 353.587 133.36 364.516Z" fill="#3D907E"/>
<path d="M211.324 404.604C199.894 395.66 170.773 390.223 151.511 409.037C154.888 412.625 161.986 413.444 167.168 412.873C190.608 410.35 198.306 395.056 211.324 404.604Z" fill="#3D907E"/>
<path d="M211.324 404.604C199.138 395.105 181.923 368.545 181.44 345.576C191.606 346.873 206.42 361.477 204.576 390.807C204.133 397.333 209.536 403.293 211.324 404.604Z" fill="#3D907E"/>
<path d="M233.439 423.601C221.41 412.041 193.442 405.56 173.494 421.033C175.277 423.596 179.655 425.343 182.734 426.056C204.199 430.578 221.218 412.114 233.439 423.601Z" fill="#3D907E"/>
<path d="M233.439 423.601C223.204 413.801 208.389 385.027 210.643 361.51C213.325 362.246 218.142 365.209 221.697 369.907C238.266 390.919 220.873 411.792 233.439 423.601Z" fill="#3D907E"/>
<path d="M498.85 448.094C526.173 414.886 561.196 389.77 599.834 374.59" stroke="#3D907E" stroke-miterlimit="10"/>
<path d="M618.061 368.226C594.229 399.012 577.255 390.301 559.989 395.778C550.486 398.882 551.99 401.549 558.915 394.059C569.859 382.425 580.973 357.297 618.061 368.226Z" fill="#3D907E"/>
<path d="M540.099 408.315C551.53 399.37 580.65 393.934 599.911 412.747C596.535 416.336 589.437 417.154 584.256 416.583C560.817 414.06 553.115 398.766 540.099 408.315Z" fill="#3D907E"/>
<path d="M540.099 408.315C552.287 398.815 569.501 372.256 569.982 349.286C559.815 350.585 545.004 365.187 546.85 394.518C547.29 401.043 541.889 407.003 540.099 408.315Z" fill="#3D907E"/>
<path d="M517.985 427.312C530.014 415.751 557.984 409.27 577.93 424.742C576.145 427.306 571.767 429.053 568.688 429.766C547.223 434.288 530.203 415.824 517.985 427.312Z" fill="#3D907E"/>
<path d="M517.985 427.312C528.219 417.511 543.035 388.738 540.779 365.22C538.1 365.956 533.282 368.921 529.728 373.618C513.157 394.629 530.551 415.502 517.985 427.312Z" fill="#3D907E"/>
<path d="M262.192 225.017C258.406 236.349 257.836 246.368 260.919 247.399C264.002 248.429 269.571 240.079 273.357 228.749C277.145 217.419 277.715 207.4 274.632 206.369C271.549 205.338 265.98 213.687 262.192 225.017Z" fill="white"/>
<path d="M273.213 228.653C264.268 236.572 258.764 244.965 260.919 247.399C263.074 249.832 272.071 245.386 281.016 237.467C289.96 229.548 295.465 221.157 293.309 218.722C291.154 216.288 282.157 220.734 273.213 228.653Z" fill="white"/>
<path d="M280.938 237.311C269.232 239.697 260.269 244.213 260.919 247.399C261.568 250.584 271.583 251.233 283.289 248.847C294.995 246.462 303.958 241.945 303.309 238.76C302.659 235.574 292.644 234.925 280.938 237.311Z" fill="white"/>
<path d="M283.3 248.672C271.97 244.886 261.949 244.315 260.919 247.399C259.888 250.482 268.238 256.052 279.568 259.838C290.898 263.626 300.919 264.195 301.948 261.112C302.979 258.029 294.63 252.46 283.3 248.672Z" fill="white"/>
<path d="M279.664 259.693C271.745 250.747 263.352 245.244 260.919 247.399C258.485 249.553 262.931 258.552 270.85 267.496C278.769 276.44 287.162 281.945 289.595 279.79C292.029 277.635 287.583 268.638 279.664 259.693Z" fill="white"/>
<path d="M271.006 267.419C268.62 255.712 264.104 246.749 260.919 247.399C257.733 248.048 257.085 258.064 259.47 269.769C261.855 281.475 266.372 290.438 269.558 289.789C272.743 289.139 273.392 279.124 271.006 267.419Z" fill="white"/>
<path d="M259.645 269.78C263.431 258.45 264.002 248.429 260.919 247.399C257.836 246.368 252.265 254.719 248.479 266.048C244.693 277.378 244.122 287.399 247.205 288.429C250.288 289.46 255.858 281.11 259.645 269.78Z" fill="white"/>
<path d="M248.625 266.144C257.57 258.225 263.074 249.832 260.919 247.399C258.764 244.965 249.765 249.411 240.821 257.33C231.877 265.249 226.372 273.642 228.527 276.075C230.682 278.51 239.679 274.063 248.625 266.144Z" fill="white"/>
<path d="M240.9 257.486C252.605 255.101 261.568 250.584 260.919 247.399C260.269 244.213 250.253 243.565 238.548 245.95C226.842 248.336 217.879 252.852 218.529 256.039C219.177 259.224 229.193 259.872 240.9 257.486Z" fill="white"/>
<path d="M238.537 246.125C249.868 249.911 259.888 250.482 260.919 247.399C261.949 244.315 253.6 238.746 242.269 234.959C230.939 231.173 220.919 230.602 219.888 233.685C218.858 236.768 227.207 242.339 238.537 246.125Z" fill="white"/>
<path d="M242.173 235.104C250.092 244.05 258.485 249.553 260.919 247.399C263.352 245.244 258.906 236.246 250.987 227.301C243.069 218.357 234.676 212.852 232.242 215.008C229.807 217.163 234.254 226.16 242.173 235.104Z" fill="white"/>
<path d="M250.832 227.379C253.216 239.085 257.733 248.048 260.919 247.399C264.104 246.749 264.753 236.734 262.367 225.029C259.981 213.322 255.465 204.359 252.28 205.009C249.093 205.658 248.446 215.674 250.832 227.379Z" fill="white"/>
<path d="M253.285 246.934C253.029 251.15 256.239 254.776 260.454 255.032C264.669 255.288 268.295 252.079 268.552 247.863C268.808 243.648 265.599 240.022 261.383 239.765C257.167 239.509 253.541 242.718 253.285 246.934Z" fill="#F8A264"/>
<path d="M149.496 442.69C145.71 454.02 145.14 464.041 148.223 465.071C151.307 466.102 156.876 457.752 160.662 446.422C164.449 435.092 165.019 425.071 161.936 424.041C158.853 423.01 153.284 431.36 149.496 442.69Z" fill="white"/>
<path d="M160.517 446.326C151.573 454.245 146.068 462.636 148.223 465.071C150.378 467.505 159.376 463.059 168.32 455.14C177.264 447.221 182.769 438.828 180.614 436.393C178.459 433.96 169.461 438.407 160.517 446.326Z" fill="white"/>
<path d="M168.243 454.984C156.536 457.37 147.573 461.886 148.223 465.071C148.872 468.257 158.888 468.904 170.594 466.518C182.299 464.133 191.262 459.618 190.614 456.432C189.963 453.246 179.948 452.598 168.243 454.984Z" fill="white"/>
<path d="M170.604 466.345C159.274 462.557 149.253 461.987 148.223 465.071C147.192 468.154 155.542 473.723 166.872 477.511C178.202 481.297 188.224 481.868 189.253 478.784C190.284 475.7 181.934 470.131 170.604 466.345Z" fill="white"/>
<path d="M166.968 477.364C159.049 468.42 150.656 462.915 148.223 465.071C145.789 467.226 150.235 476.223 158.154 485.169C166.073 494.113 174.466 499.618 176.899 497.462C179.333 495.307 174.887 486.309 166.968 477.364Z" fill="white"/>
<path d="M158.311 485.09C155.925 473.385 151.408 464.422 148.223 465.071C145.037 465.719 144.389 475.736 146.774 487.442C149.16 499.147 153.677 508.111 156.863 507.461C160.047 506.812 160.696 496.797 158.311 485.09Z" fill="white"/>
<path d="M146.949 487.451C150.735 476.121 151.307 466.102 148.223 465.071C145.14 464.041 139.571 472.39 135.784 483.719C131.997 495.051 131.426 505.07 134.51 506.102C137.593 507.132 143.162 498.782 146.949 487.451Z" fill="white"/>
<path d="M135.93 483.817C144.874 475.898 150.378 467.505 148.223 465.071C146.068 462.636 137.071 467.083 128.125 475.002C119.181 482.921 113.677 491.314 115.832 493.748C117.987 496.182 126.985 491.736 135.93 483.817Z" fill="white"/>
<path d="M128.203 475.158C139.909 472.772 148.872 468.257 148.223 465.071C147.573 461.886 137.558 461.237 125.853 463.623C114.147 466.009 105.183 470.525 105.833 473.71C106.482 476.896 116.498 477.543 128.203 475.158Z" fill="white"/>
<path d="M125.842 463.798C137.172 467.584 147.193 468.154 148.224 465.071C149.253 461.988 140.904 456.418 129.574 452.632C118.244 448.845 108.223 448.275 107.192 451.358C106.162 454.441 114.511 460.01 125.842 463.798Z" fill="white"/>
<path d="M129.477 452.777C137.396 461.721 145.789 467.226 148.223 465.071C150.657 462.915 146.21 453.918 138.292 444.974C130.373 436.028 121.98 430.525 119.546 432.68C117.112 434.834 121.558 443.833 129.477 452.777Z" fill="white"/>
<path d="M138.136 445.051C140.522 456.756 145.037 465.719 148.223 465.071C151.408 464.422 152.057 454.407 149.671 442.7C147.285 430.995 142.769 422.032 139.584 422.681C136.399 423.331 135.751 433.346 138.136 445.051Z" fill="white"/>
<path d="M140.59 464.607C140.333 468.823 143.544 472.449 147.758 472.705C151.974 472.961 155.6 469.75 155.856 465.535C156.112 461.32 152.903 457.694 148.687 457.438C144.471 457.182 140.846 460.391 140.59 464.607Z" fill="#F8A264"/>
<path d="M201.484 310.604C195.16 311.189 188.723 310.512 182.66 308.622C180.06 307.81 177.426 306.709 175.633 304.656C173.84 302.603 173.146 299.375 174.675 297.12C175.961 295.224 178.483 294.476 180.76 294.73C183.037 294.982 185.127 296.068 187.119 297.197C194.112 301.167 200.616 305.931 207.1 310.684" fill="#F8A264"/>
<path d="M204.567 275.607C202.36 276.218 200.844 278.368 200.354 280.606C199.864 282.843 200.222 285.171 200.654 287.421C202.175 295.316 204.607 303.003 207.031 310.668L208.755 305.321C211.335 299.519 212.755 293.204 212.906 286.855C212.97 284.13 212.771 281.283 211.401 278.928C210.03 276.572 207.193 274.881 204.567 275.607Z" fill="#F8A264"/>
<path d="M207.1 310.684C203.26 308.168 198.279 304.456 194.344 301.84C190.409 299.222 186.881 295.846 185.006 291.508C184.06 289.318 183.686 286.685 184.861 284.61C186.674 281.404 191.46 281.046 194.63 282.92C197.8 284.795 199.711 288.186 201.402 291.458C204.694 297.824 206.665 303.528 207.1 310.684Z" fill="#F8A264"/>
<path d="M207.916 298.035C207.42 298.289 206.84 298.569 206.526 300.091C205.902 303.116 205.775 304.355 205.614 307.001C205.388 304.862 204.266 302.533 203.378 300.574C202.995 299.728 201.326 298.589 200.423 298.806C199.485 299.029 199.306 300.286 199.445 301.239C199.876 304.187 201.481 306.947 203.829 308.78C201.395 307.568 198.52 307.267 195.887 307.948C195.242 308.115 194.526 308.424 194.34 309.064C194.19 309.582 194.464 310.148 194.882 310.489C195.299 310.83 195.833 310.987 196.356 311.115C199.88 311.973 203.649 311.801 207.08 310.624C208.961 306.926 209.598 306.03 210.816 299.794C210.903 299.343 210.742 298.661 209.96 298.137C209.496 297.827 208.413 297.782 207.916 298.035Z" fill="#3D907E"/>
<path d="M205.671 310.841C213.513 331.058 230.394 347.165 250.977 354.01C252.072 354.374 252.542 352.646 251.452 352.283C231.51 345.653 214.999 329.966 207.398 310.366C206.986 309.303 205.254 309.766 205.671 310.841Z" fill="#3D907E"/>
<path d="M394.238 517.796L223.415 525.253C168.177 530.878 115.615 559.329 80.7039 602.504C150.268 640.467 267.802 652.189 347.029 654.015C453.258 656.47 545.157 642.211 642.83 584.977C575.516 527.135 481.52 501.734 394.238 517.796Z" fill="#3D907E"/>
<path d="M147.45 547.868C160.771 572.115 174.091 596.356 187.41 620.603C187.595 620.936 188.053 621.13 188.421 621.012C194.756 619.033 201.092 617.049 207.427 615.064C222.607 610.308 237.789 605.557 252.97 600.806C271.264 595.078 289.558 589.35 307.851 583.622C323.523 578.712 339.195 573.807 354.867 568.903C362.15 566.622 369.626 564.648 376.799 562.034C377.22 561.881 376.489 561.983 376.54 561.988C376.734 562.004 376.941 562.055 377.13 562.101C378.146 562.326 379.179 562.484 380.201 562.679C384.465 563.482 388.729 564.29 392.994 565.093C407.975 567.921 422.959 570.744 437.94 573.572C456.719 577.116 475.497 580.656 494.275 584.2C511.113 587.376 527.953 590.552 544.789 593.728C553.938 595.456 563.083 597.18 572.232 598.908C572.662 598.985 573.091 599.067 573.526 599.149C573.956 599.231 574.549 599.036 574.626 598.525C577.055 582.916 579.484 567.307 581.914 551.693C582.256 549.504 582.594 547.31 582.936 545.121C583.115 543.991 581.387 543.505 581.213 544.646C578.784 560.255 576.354 575.863 573.925 591.472C573.582 593.666 573.24 595.86 572.902 598.049C573.265 597.84 573.634 597.63 574.002 597.425C567.512 596.198 561.022 594.976 554.537 593.753C539.005 590.823 523.473 587.892 507.941 584.962C489.104 581.407 470.267 577.853 451.431 574.298C434.976 571.199 418.52 568.095 402.066 564.99C393.889 563.446 385.691 561.533 377.452 560.347C376.268 560.173 375.3 560.628 374.154 560.986C370.394 562.162 366.632 563.344 362.872 564.52C348.745 568.944 334.618 573.368 320.492 577.792C302.247 583.499 284.001 589.212 265.756 594.924C249.281 600.085 232.804 605.245 216.329 610.4C207.292 613.228 198.256 616.062 189.22 618.89C188.795 619.023 188.371 619.156 187.946 619.289C188.282 619.427 188.619 619.56 188.956 619.698C175.636 595.456 162.316 571.209 148.995 546.968C148.441 545.955 146.895 546.86 147.45 547.868Z" fill="#AAD0D5"/>
<path d="M370.517 584.205C376.604 606.442 380.864 629.154 383.228 652.087C383.345 653.222 385.136 653.232 385.018 652.087C382.639 628.991 378.373 606.12 372.243 583.729C371.939 582.619 370.212 583.09 370.517 584.205Z" fill="#AAD0D5"/>
<path d="M78.9206 604.979C114.38 609.592 149.743 614.921 185.19 619.626C220.044 624.255 254.979 627.973 290.034 630.673C306.38 631.931 322.743 633 339.114 633.87C346.738 634.279 354.364 634.637 361.991 634.954C369.251 635.256 376.669 635.951 383.925 635.394C390.077 634.923 396.238 633.404 402.286 632.238C428.967 627.098 455.649 621.959 482.33 616.814C516.349 610.262 550.369 603.706 584.384 597.149C597.19 594.679 609.991 592.214 622.797 589.749C629.251 588.501 635.828 587.519 642.226 586C642.503 585.939 642.789 585.893 643.065 585.841C644.195 585.622 643.715 583.898 642.59 584.113C626.566 587.202 610.543 590.291 594.52 593.38C561.293 599.783 528.07 606.186 494.843 612.589C466.06 618.133 437.278 623.682 408.495 629.226C402.535 630.377 396.577 631.543 390.614 632.673C380.601 634.575 370.248 633.517 360.131 633.087C344.769 632.438 329.417 631.599 314.074 630.597C279.163 628.31 244.302 625.206 209.572 620.956C174.157 616.624 138.866 611.346 103.522 606.488C95.3252 605.358 87.1254 604.253 78.9206 603.189C77.7816 603.036 77.7924 604.831 78.9206 604.979Z" fill="#1B1C1D"/>
<path d="M384.529 185.686C379.292 182.016 355.899 164.653 346.995 127.847C344.254 116.519 343.01 103.059 344.747 100.333" stroke="#3D907E" stroke-width="1.33333" stroke-miterlimit="10" stroke-linecap="round" stroke-linejoin="round"/>
<path d="M473.305 216.275C472.252 200.828 481.399 186.699 484.89 171.615C490.636 146.799 476.23 116.871 454.771 103.145L449.137 99.59C437.264 92.1022 423.361 88.2056 409.356 89.1308C374.078 91.4588 355.233 120.461 344.26 138.599C337.163 150.331 328.435 166.826 319.948 174.644C309.86 183.932 298.217 194.143 284.534 195.027C285.211 201.998 290.32 208.338 296.987 210.481C303.654 212.625 311.5 210.451 316.112 205.182C311.793 209.927 307.475 214.673 303.156 219.418C313.602 233.324 328.82 243.061 344.942 249.588C361.064 256.115 378.206 259.67 395.238 263.196C410.408 266.335 425.579 269.474 440.75 272.614C446.718 273.849 453.101 275.053 458.756 272.779C464.409 270.505 468.457 263.245 465.165 258.115C468.307 262.879 470.045 268.557 470.108 274.264C475.986 274.094 481.862 273.925 487.739 273.755C493.082 254.392 474.669 236.316 473.305 216.275Z" fill="#1B1C1D"/>
<path d="M402.913 218.341C402.363 219.58 392.393 265.01 392.393 265.01L334.848 239.434L360.228 182.325L402.913 218.341Z" fill="#F9AD8E"/>
<path d="M400.691 233.643C400.691 233.643 434.421 242.788 450.038 207.755C455.377 195.776 460.918 183.038 468.443 159.685C476.535 134.578 462.938 116.682 437.058 105.806L434.485 104.725C406.117 94.5938 382.246 101.81 373.72 128.81L365.792 154.945C365.792 154.945 339.5 208.021 400.642 233.664" fill="#F9AD8E"/>
<path d="M405.935 155.141C410.278 154.438 414.78 156.333 417.468 159.772C417.768 160.156 418.418 160.082 418.734 159.772C419.114 159.4 419.029 158.886 418.734 158.507C415.629 154.533 410.403 152.615 405.46 153.414C404.978 153.493 404.721 154.085 404.835 154.515C404.969 155.024 405.461 155.217 405.935 155.141Z" fill="#1B1C1D"/>
<path d="M443.841 170.063C448.184 169.361 452.687 171.256 455.373 174.695C455.674 175.079 456.324 175.003 456.639 174.695C457.02 174.323 456.935 173.807 456.639 173.43C453.534 169.456 448.309 167.537 443.364 168.337C442.884 168.415 442.627 169.008 442.74 169.439C442.875 169.947 443.366 170.141 443.841 170.063Z" fill="#1B1C1D"/>
<path d="M450.858 156.917C454.415 157.778 457.816 159.274 460.853 161.316" stroke="#1B1C1D" stroke-width="4" stroke-miterlimit="10" stroke-linecap="round" stroke-linejoin="round"/>
<path d="M414.538 142.538C417.939 143.668 421.28 145.269 424.355 147.245" stroke="#1B1C1D" stroke-width="4" stroke-miterlimit="10" stroke-linecap="round" stroke-linejoin="round"/>
<path d="M368.42 158.375C380.871 166.377 395.481 142.274 423.674 141.318C438.885 140.801 457.256 127.212 466.192 114.463C466.192 114.463 443.121 83.9326 410.44 90.3837C377.759 96.8349 362.042 128.078 362.042 128.078L368.42 158.375Z" fill="#1B1C1D"/>
<path d="M374.048 155.014C370.94 150.943 366.374 147.669 361.266 147.801C356.031 147.934 351.044 151.918 349.197 157.07C347.353 162.223 348.57 168.207 351.953 172.208C355.333 176.209 360.672 178.212 365.905 177.831L374.048 155.014Z" fill="#F9AD8E"/>
<path d="M362.463 157.45C361.233 156.395 359.3 156.379 357.924 157.237C356.548 158.094 355.729 159.693 355.594 161.308C355.458 162.923 355.947 164.546 356.737 165.962C357.417 167.18 358.387 168.319 359.701 168.786C361.283 169.348 363.159 168.776 364.281 167.527C365.403 166.278 365.785 164.452 365.422 162.814C365.06 161.175 364.004 159.731 362.649 158.739" fill="#F79988"/>
<path d="M365.827 165.071C366.497 161.406 364.146 157.284 360.771 155.81C359.62 155.308 358.378 155.101 357.123 155.172C356.436 155.211 356.432 156.286 357.123 156.246C359.012 156.138 360.823 156.74 362.219 158.03C363.465 159.181 364.329 160.729 364.699 162.382C364.874 163.164 364.936 163.993 364.792 164.786C364.667 165.462 365.703 165.751 365.827 165.071Z" fill="#F35C61"/>
<path d="M400.967 233.756C394.28 230.708 385.991 225.1 381.886 215.626C381.886 215.626 380.706 234.25 397.386 241.813L400.967 233.756Z" fill="#F35C61"/>
<path d="M431.45 167.213C429.788 170.962 428.102 174.747 426.874 178.668C426.299 180.495 425.795 182.426 425.848 184.357C425.884 185.7 426.238 186.987 426.55 188.285C426.822 189.416 427.13 190.624 427.114 191.789C427.062 195.364 422.721 195.108 420.236 194.832C419.092 194.705 419.102 196.495 420.236 196.622C423.451 196.98 428.105 196.782 428.814 192.731C429.138 190.884 428.539 188.881 428.095 187.081C427.408 184.294 427.74 181.881 428.599 179.143C429.783 175.37 431.396 171.727 432.995 168.117C433.458 167.073 431.917 166.161 431.45 167.213Z" fill="#1B1C1D"/>
<path d="M401.255 190.889C403.29 190.864 405.399 190.864 407.254 191.7C409.11 192.536 410.642 194.451 410.363 196.467C410.164 197.913 409.122 199.077 408.129 200.143C407.42 200.904 406.665 201.694 405.671 201.998C404.052 202.49 402.292 201.493 401.311 200.115C399.641 197.769 399.81 194.288 401.699 192.116" fill="#F35C61"/>
<path d="M399.35 188.215C399.609 193.886 403.247 198.995 408.465 201.179C408.913 201.368 409.445 200.977 409.565 200.555C409.713 200.041 409.384 199.64 408.94 199.454C404.496 197.592 401.359 193.011 401.141 188.215C401.087 187.068 399.297 187.062 399.35 188.215Z" fill="#1B1C1D"/>
<path d="M388.471 176.284C386.787 180.072 388.494 184.508 392.282 186.192C396.07 187.875 400.506 186.169 402.19 182.381C403.873 178.592 402.167 174.157 398.379 172.473C394.591 170.789 390.156 172.496 388.471 176.284Z" fill="#F79988"/>
<path d="M446.87 183.921C446.234 185.781 444.253 186.808 442.448 186.221C440.646 185.636 439.697 183.658 440.335 181.8C440.973 179.942 442.953 178.911 444.755 179.496C446.561 180.083 447.509 182.064 446.87 183.921Z" fill="#1B1C1D"/>
<path d="M414.258 169.798C413.62 171.657 411.641 172.685 409.835 172.098C408.034 171.512 407.084 169.534 407.722 167.676C408.36 165.817 410.34 164.787 412.142 165.371C413.947 165.959 414.895 167.941 414.258 169.798Z" fill="#1B1C1D"/>
<path d="M464.833 117.089C480.635 129.961 489.366 150.499 488.289 170.796C488.014 175.978 487.057 181.081 485.493 186.025C483.662 191.807 481.199 197.378 479.651 203.248C478.192 208.778 477.796 214.399 478.985 220.02C480.174 225.64 482.601 230.907 484.998 236.094C489.949 246.805 495.993 260.835 488.077 271.705C487.398 272.637 488.95 273.532 489.623 272.608C496.059 263.772 493.719 251.869 489.817 242.491C485.037 231.005 478.176 220.053 480.609 207.094C481.786 200.822 484.347 194.931 486.415 188.925C488.124 183.959 489.343 178.893 489.861 173.662C490.875 163.433 489.37 152.953 485.722 143.355C481.66 132.673 474.974 123.053 466.099 115.823C465.212 115.102 463.938 116.36 464.833 117.089Z" fill="#1B1C1D"/>
<path d="M283.467 189.349C293.005 188.397 302.242 185.317 310.416 180.299C318.831 175.132 325.575 168.061 331.051 159.896C336.779 151.357 341.28 142.065 347.083 133.573C352.68 125.383 359.677 118.172 367.696 112.331C376.579 105.861 386.603 101.086 397.23 98.2971C398.344 98.0046 397.871 96.2764 396.754 96.57C378.513 101.359 361.901 111.995 350.015 126.653C337.226 142.424 330.978 162.982 314.271 175.52C305.327 182.232 294.595 186.448 283.467 187.559C282.332 187.672 282.32 189.464 283.467 189.349Z" fill="#1B1C1D"/>
<path d="M286.822 198.067C296.64 206.885 311.423 208.206 322.462 200.844C327.762 197.31 331.546 192.264 333.864 186.365C336.351 180.037 337.229 173.242 338.708 166.643C340.207 159.958 342.44 153.45 347.079 148.259C351.457 143.363 357.25 139.906 363.363 137.618C378.179 132.072 394.211 133.551 409.708 132.816C426.982 131.998 443.768 127.346 458.841 118.822C459.844 118.255 458.943 116.708 457.938 117.277C444.653 124.789 429.817 129.444 414.598 130.713C399.286 131.989 383.561 130.133 368.548 134.098C356.862 137.184 345.574 143.869 340.432 155.253C335.058 167.152 336.375 181.636 328.596 192.517C324.323 198.491 317.532 202.63 310.259 203.67C302.295 204.809 294.047 202.154 288.088 196.801C287.234 196.034 285.963 197.295 286.822 198.067Z" fill="#372C2E"/>
<path d="M462.277 119.628C469.266 125.791 473.935 134.306 475.332 143.528C476.787 153.133 474.108 162.602 470.578 171.457C467.017 180.392 462.605 189.008 460.083 198.328C457.551 207.687 456.693 217.506 457.488 227.165C458.36 237.753 461.2 248.091 465.887 257.625C466.395 258.659 467.939 257.753 467.432 256.722C458.581 238.714 456.582 217.549 461.972 198.212C467.002 180.17 479.804 163.42 477.171 143.848C475.854 134.054 470.953 124.896 463.542 118.363C462.682 117.603 461.41 118.865 462.277 119.628Z" fill="#372C2E"/>
<path d="M450.241 604.059C457.613 601.501 466.819 596.996 467.011 589.196C467.203 581.397 463.501 573.884 458.303 568.064C453.105 562.244 446.488 557.897 439.823 553.841C432.964 549.663 425.529 545.239 422.333 537.869C420.282 533.144 421.421 524.117 418.822 519.668C416.235 515.239 411.558 511.715 405.218 511.137C400.108 510.673 393.856 509.981 388.731 510.214C378.717 510.67 369.9 515.111 359.916 516.006C358.742 516.108 357.474 516.256 356.615 517.065C355.646 517.975 355.491 519.432 355.397 520.757C354.56 532.556 353.722 544.359 352.885 556.158C361.799 560.025 368.282 556.322 376.734 561.119C379.605 562.745 381.84 565.277 383.964 567.803C392.342 577.776 404.622 587.959 414.596 596.341C424.57 604.718 437.626 610.574 450.476 608.436" fill="#F9AD8E"/>
<path d="M440.669 607.94C439.949 610.774 436.517 611.96 433.597 611.894C431.61 611.848 429.505 611.372 428.127 609.945C427.138 608.922 426.638 607.536 425.868 606.339C423.706 602.985 402.018 587.836 397.516 582.369" fill="#F9AD8E"/>
<path d="M439.806 607.7C439.007 610.257 436 611.045 433.597 610.999C432.242 610.968 430.787 610.733 429.624 610.001C428.344 609.188 427.769 607.843 427.05 606.58C425.964 604.667 424.154 603.281 422.487 601.89C416.816 597.164 410.855 592.792 405.143 588.112C402.726 586.133 400.165 584.138 398.149 581.735C397.407 580.85 396.147 582.123 396.883 583.003C398.858 585.356 401.359 587.314 403.725 589.253C407.032 591.968 410.414 594.587 413.784 597.221C416.75 599.543 419.75 601.844 422.593 604.319C423.391 605.015 424.273 605.726 424.927 606.565C426.198 608.196 426.683 610.201 428.494 611.408C432.409 614.011 439.962 613.193 441.531 608.176C441.876 607.076 440.149 606.605 439.806 607.7Z" fill="#F35C61"/>
<path d="M455.935 604.059C454.346 610.743 445.3 609.715 441.284 608.043C437.265 606.365 434.205 602.57 433.416 598.284" fill="#F9AD8E"/>
<path d="M455.072 603.818C453.901 608.39 448.697 608.845 444.77 608.114C439.515 607.132 435.338 603.389 434.28 598.049C434.056 596.919 432.33 597.4 432.554 598.525C433.76 604.611 438.736 608.948 444.749 609.919C449.558 610.697 455.403 609.735 456.798 604.294C457.084 603.179 455.359 602.703 455.072 603.818Z" fill="#F35C61"/>
<path d="M464.102 596.607C463.703 600.039 460.709 602.852 457.322 603.527C453.935 604.202 450.339 602.944 447.731 600.683C445.12 598.417 443.419 595.252 442.413 591.948" fill="#F9AD8E"/>
<path d="M463.239 596.367C462.549 601.327 457.322 603.69 452.804 602.437C447.786 601.046 444.749 596.433 443.277 591.713C442.935 590.613 441.206 591.084 441.55 592.188C443.272 597.707 447.016 603.056 452.996 604.33C458.208 605.439 464.18 602.478 464.966 596.842C465.122 595.717 463.398 595.231 463.239 596.367Z" fill="#F35C61"/>
<path d="M450.019 561.001C456.659 563.891 462.463 568.678 466.57 574.641C469.226 578.502 471.225 583.141 470.551 587.775C469.875 592.413 465.746 596.735 461.082 596.29C457.24 595.922 454.361 592.695 452.099 589.565C449.837 586.435 447.527 582.967 443.895 581.658" fill="#F9AD8E"/>
<path d="M449.568 561.774C455.097 564.234 460.003 567.875 463.868 572.539C467.702 577.173 471.703 584.133 468.897 590.219C467.765 592.669 465.542 594.868 462.802 595.339C459.739 595.865 457.071 593.978 455.09 591.856C451.483 587.989 449.349 582.85 444.133 580.799C443.061 580.374 442.595 582.103 443.658 582.522C448.588 584.461 450.68 589.928 454.195 593.508C457.286 596.658 461.621 598.377 465.769 596.162C469.862 593.978 471.898 589.248 471.527 584.762C471.094 579.505 468.11 574.759 464.765 570.836C460.873 566.274 455.943 562.664 450.47 560.229C449.428 559.764 448.515 561.308 449.568 561.774Z" fill="#F35C61"/>
<path d="M316.057 477.429C287.49 449.396 253.361 428.857 217.309 425.931C201.474 424.647 184.903 427.014 171.339 437.453C157.775 447.892 147.944 467.714 149.991 487.662C151.382 501.236 157.985 513.311 166.343 521.979C174.7 530.648 184.732 536.294 194.835 541.127C222.981 554.598 366.186 583.213 396.223 585.356L425.12 535.588L316.057 477.429Z" fill="#D94D56"/>
<path d="M188.365 467.911C230.841 465.939 272.272 491.908 316.78 522.619L188.365 467.911Z" fill="#D94D56"/>
<path d="M188.365 468.805C224.484 467.233 258.039 485.439 287.607 504.218C297.325 510.39 306.852 516.855 316.327 523.391C317.278 524.045 318.175 522.496 317.231 521.846C300.507 510.31 283.611 498.912 265.769 489.154C250.109 480.589 233.532 473.183 216.006 469.442C206.927 467.505 197.645 466.612 188.365 467.015C187.218 467.064 187.213 468.855 188.365 468.805Z" fill="#1B1C1D"/>
<path d="M249.673 625.85C242.302 623.298 233.095 618.788 232.904 610.988C232.711 603.189 236.413 595.676 241.611 589.856C246.811 584.036 253.427 579.689 260.091 575.633C266.95 571.455 274.387 567.031 277.582 559.667C279.632 554.936 278.494 545.914 281.093 541.465C283.679 537.031 288.356 533.507 294.697 532.934C299.807 532.469 306.06 531.778 311.184 532.008C321.199 532.464 330.015 536.908 340 537.803C341.172 537.905 342.441 538.054 343.301 538.862C344.269 539.772 344.423 541.23 344.518 542.554C345.355 554.353 346.192 566.151 347.029 577.95C338.117 581.817 331.634 578.119 323.181 582.911C320.31 584.537 318.074 587.069 315.951 589.595C307.574 599.573 295.294 609.756 285.319 618.133C275.345 626.515 262.288 632.366 249.439 630.228" fill="#F9AD8E"/>
<path d="M259.246 629.737C259.965 632.566 263.399 633.752 266.318 633.686C268.304 633.64 270.409 633.169 271.789 631.742C272.776 630.714 273.276 629.328 274.046 628.131C276.21 624.782 297.896 609.628 302.4 604.161" fill="#F9AD8E"/>
<path d="M258.383 629.973C259.77 634.402 265.6 635.353 269.517 634.09C273.164 632.913 273.923 629.195 276.535 626.812C282.29 621.57 288.744 617.069 294.797 612.18C297.631 609.894 300.68 607.603 303.031 604.795C303.767 603.915 302.507 602.647 301.767 603.532C300.034 605.598 297.879 607.332 295.812 609.05C292.884 611.484 289.881 613.832 286.881 616.174C284.016 618.414 281.136 620.644 278.32 622.946C276.644 624.321 274.695 625.718 273.409 627.487C272.787 628.346 272.402 629.354 271.819 630.239C270.797 631.783 269.206 632.504 267.408 632.719C264.757 633.041 261.023 632.417 260.108 629.497C259.766 628.403 258.038 628.868 258.383 629.973Z" fill="#F35C61"/>
<path d="M243.98 625.851C245.568 632.54 254.614 631.512 258.632 629.835C262.649 628.157 265.709 624.362 266.498 620.082" fill="#F9AD8E"/>
<path d="M243.116 626.091C244.511 631.532 250.357 632.489 255.167 631.711C261.178 630.745 266.156 626.408 267.36 620.317C267.584 619.192 265.86 618.711 265.634 619.846C264.578 625.186 260.401 628.929 255.145 629.906C251.217 630.643 246.014 630.182 244.842 625.615C244.557 624.5 242.83 624.971 243.116 626.091Z" fill="#F35C61"/>
<path d="M235.812 618.399C236.211 621.831 239.206 624.649 242.593 625.324C245.98 625.994 249.575 624.736 252.185 622.475C254.794 620.214 256.496 617.044 257.501 613.74" fill="#F9AD8E"/>
<path d="M234.95 618.639C235.733 624.26 241.709 627.252 246.918 626.127C252.9 624.833 256.639 619.514 258.365 613.98C258.708 612.881 256.981 612.405 256.639 613.505C255.162 618.24 252.129 622.828 247.112 624.234C242.595 625.498 237.365 623.114 236.675 618.164C236.518 617.028 234.792 617.509 234.95 618.639Z" fill="#F35C61"/>
<path d="M249.895 582.793C243.255 585.688 237.453 590.47 233.346 596.433C230.688 600.294 228.689 604.933 229.363 609.572C230.039 614.205 234.168 618.532 238.832 618.082C242.675 617.714 245.554 614.487 247.815 611.362C250.077 608.232 252.387 604.764 256.019 603.455" fill="#F9AD8E"/>
<path d="M249.444 582.026C244.664 584.149 240.314 587.166 236.685 590.935C233.075 594.689 229.757 599.348 228.682 604.524C227.724 609.142 228.922 614.011 232.727 617.013C236.25 619.79 240.699 619.427 244.14 616.721C248.671 613.152 250.661 606.518 256.258 604.319C257.318 603.9 256.855 602.166 255.781 602.591C250.566 604.641 248.432 609.781 244.824 613.648C242.843 615.77 240.175 617.657 237.112 617.136C234.371 616.665 232.149 614.461 231.017 612.011C228.211 605.93 232.21 598.965 236.046 594.336C239.912 589.667 244.817 586.026 250.348 583.571C251.397 583.1 250.488 581.561 249.444 582.026Z" fill="#F35C61"/>
<path d="M407.567 477.429C436.135 449.396 470.263 428.857 506.315 425.931C522.148 424.647 538.724 427.014 552.287 437.453C565.85 447.892 575.679 467.714 573.634 487.662C572.243 501.236 565.64 513.311 557.283 521.979C548.927 530.648 538.892 536.294 528.792 541.127C500.643 554.598 357.439 583.213 327.401 585.356L301.182 529.722L407.567 477.429Z" fill="#D94D56"/>
<path d="M506.694 470.063C514.528 466.609 523.166 465.34 531.666 466.285C532.806 466.413 532.801 464.623 531.666 464.495C522.833 463.513 513.919 464.935 505.791 468.518C504.739 468.982 505.649 470.523 506.694 470.063Z" fill="#1B1C1D"/>
<path d="M349.083 512.257C340.872 514.722 332.611 517.049 324.471 519.744C316.408 522.419 308.53 525.585 300.73 528.95C300.398 529.093 300.193 529.625 300.319 529.958C307.689 549.571 316.651 568.56 327.126 586.706C327.336 587.074 327.743 587.192 328.136 587.115C340.789 584.773 353.436 582.4 366.082 580.021C388.208 575.858 410.331 571.68 432.418 567.323C440.347 565.758 448.302 564.254 456.173 562.413C457.295 562.147 456.819 560.423 455.697 560.684C438.531 564.699 421.103 567.737 403.792 571.051C382.988 575.04 362.17 578.952 341.346 582.844C336.785 583.693 332.222 584.547 327.66 585.391C327.997 585.529 328.335 585.668 328.671 585.8C318.273 567.788 309.361 548.952 302.046 529.482C301.909 529.82 301.771 530.157 301.633 530.495C309.434 527.135 317.317 523.984 325.386 521.325C333.384 518.691 341.495 516.405 349.558 513.981C350.659 513.653 350.19 511.925 349.083 512.257Z" fill="#1B1C1D"/>
<path d="M516.793 409.548C510.524 398.551 499.55 390.849 487.796 386.144C476.044 381.439 463.417 379.428 450.912 377.452L235.438 399.302C217.648 404.368 206.725 424.368 208.576 442.771C210.427 461.176 222.891 477.286 238.395 487.374C253.899 497.459 272.209 502.292 290.397 505.655C339.172 514.676 389.694 514.149 438.272 504.123C461.781 499.271 485.793 491.67 503.051 474.987C520.312 458.304 528.684 430.4 516.793 409.548Z" fill="#F8A264"/>
<path d="M292.271 506.79C332.659 516.216 374.607 513.357 415.356 508.022C435.682 505.361 456.033 502.271 475.1 494.389C490.709 487.938 505.442 477.881 514.497 463.328C519.167 455.826 521.678 447.033 522.532 438.284C523.401 429.391 522.475 420.146 518.783 411.946C518.307 410.897 516.768 411.806 517.238 412.848C523.688 427.166 521.831 445.654 514.692 459.374C506.934 474.287 492.275 484.871 477.216 491.555C459.042 499.622 439.405 502.98 419.839 505.635C399.87 508.343 379.792 510.504 359.636 511.043C337.197 511.643 314.648 510.175 292.747 505.065C291.627 504.803 291.149 506.529 292.271 506.79Z" fill="#1B1C1D"/>
<path d="M207.412 441.792C217.113 457.977 236.522 463.948 253.832 467.98C277.719 473.547 301.937 477.987 326.353 480.439C350.764 482.89 375.467 483.279 399.863 480.43C420.975 477.966 441.847 473.084 461.67 465.368C481.152 457.787 499.587 447.473 515.786 434.214C517.852 432.52 519.877 430.777 521.872 428.994C522.731 428.224 521.463 426.961 520.604 427.728C505.105 441.602 487.221 452.595 468.134 460.805C448.935 469.063 428.556 474.515 407.901 477.578C384.49 481.049 360.659 481.342 337.086 479.588C312.734 477.778 288.595 473.75 264.744 468.589C246.845 464.715 225.755 460.906 213.01 446.469C211.482 444.739 210.143 442.868 208.957 440.888C208.366 439.902 206.818 440.801 207.412 441.792Z" fill="#DDE3C2"/>
<path d="M414.217 246.356L346.671 232.309C346.671 232.309 276.803 239.19 268.416 246.59C260.027 253.992 289.631 415.824 289.631 415.824H447.023V284.313L414.217 246.356Z" fill="#F9AD8E"/>
<path d="M417.933 253.441C409.649 251.088 401.175 249.508 392.603 248.69C391.457 248.581 391.464 250.371 392.603 250.48C401.016 251.282 409.329 252.858 417.457 255.168C418.568 255.483 419.042 253.756 417.933 253.441Z" fill="#F35C61"/>
<path d="M356.316 248.051C351.158 247.04 346 246.03 340.842 245.021C339.717 244.8 339.235 246.526 340.366 246.748C345.524 247.757 350.682 248.767 355.841 249.777C356.965 249.997 357.447 248.271 356.316 248.051Z" fill="#F35C61"/>
<path d="M440.43 325.746C439.568 316.82 433.087 308.924 424.453 306.43C423.345 306.108 422.871 307.836 423.978 308.155C431.794 310.415 437.857 317.628 438.641 325.746C438.749 326.883 440.54 326.894 440.43 325.746Z" fill="#F35C61"/>
<path d="M436.418 284.515C434.439 292.669 431.84 300.809 428.726 308.599C428.299 309.668 430.03 310.134 430.452 309.076C433.565 301.284 436.164 293.145 438.143 284.991C438.416 283.873 436.69 283.395 436.418 284.515Z" fill="#F35C61"/>
<path d="M369.519 339.678C369.304 330.029 373.999 320.559 381.882 314.965C382.814 314.304 381.92 312.752 380.98 313.42C372.581 319.379 367.498 329.366 367.729 339.678C367.755 340.827 369.545 340.832 369.519 339.678Z" fill="#F35C61"/>
<path d="M348.947 311.965C352.909 315.014 355.776 319.382 357.084 324.198C357.384 325.307 359.113 324.836 358.809 323.721C357.371 318.421 354.195 313.762 349.85 310.419C349.464 310.123 348.851 310.363 348.626 310.741C348.351 311.199 348.566 311.672 348.947 311.965Z" fill="#F35C61"/>
<path d="M418.629 369.467L307.135 305.182L287.165 314.113L277.695 345.736L283.546 381.178L423.477 378.79L418.629 369.467Z" fill="white"/>
<path d="M413.87 246.497C413.87 246.497 451.49 251.945 460.597 266.252C467.362 276.879 476.873 304.333 476.873 304.333L432.282 310.701L414.332 247.399" fill="#F9AD8E"/>
<path d="M501.113 376.066C493.994 346.57 466.916 278.599 466.916 278.599L436.175 298.611L449.183 378.868L478.992 430.968C506.033 420.03 506.033 396.451 501.113 376.066Z" fill="#F9AD8E"/>
<path d="M485.514 314.193L423.349 369.546L428.198 378.868L488.709 322.879L485.514 314.193Z" fill="white"/>
<path d="M414.077 385.068C414.077 385.068 424.134 392.57 435.981 393.338C453.919 394.498 467.73 383.915 467.73 383.915C467.73 383.915 492.164 370.705 477.423 340.6C462.682 310.493 431.728 321.91 428.274 325.134C424.819 328.359 421.151 329.894 419.329 330.768C417.509 331.641 407.633 329.918 401.148 335.098C395.504 339.604 392.978 349.755 393.698 355.457C394.417 361.159 396.236 368.767 396.236 368.767" fill="#F9AD8E"/>
<path d="M414.077 385.068C414.077 385.068 424.134 392.57 435.981 393.338C453.919 394.498 467.73 383.915 467.73 383.915C467.73 383.915 492.164 370.705 477.423 340.6C462.682 310.493 431.728 321.91 428.274 325.134C424.819 328.359 421.151 329.894 419.329 330.768C417.509 331.641 407.633 329.918 401.148 335.098C395.504 339.604 392.978 349.755 393.698 355.457C394.417 361.159 396.236 368.767 396.236 368.767" stroke="#F35C61" stroke-width="1.33333" stroke-miterlimit="10"/>
<path d="M432.086 342.995C434.025 343.985 435.095 346.174 434.851 348.324C434.603 350.505 433.011 352.331 431.116 353.314C426.703 355.606 420.739 352.863 420.534 347.655C420.488 346.507 418.698 346.501 418.744 347.655C418.937 352.57 423.303 356.207 428.143 355.918C432.556 355.654 436.955 352.034 436.656 347.321C436.502 344.896 435.189 342.572 432.99 341.45C431.966 340.927 431.059 342.472 432.086 342.995Z" fill="#F35C61"/>
<path d="M418.124 328.542C417.753 330.537 418.284 332.549 419.589 334.101C419.891 334.463 420.547 334.436 420.855 334.101C421.205 333.719 421.177 333.219 420.855 332.836C420.823 332.798 420.79 332.759 420.759 332.721C420.819 332.803 420.822 332.804 420.759 332.721C420.7 332.641 420.645 332.562 420.591 332.479C420.482 332.313 420.382 332.14 420.29 331.962C420.246 331.873 420.205 331.783 420.162 331.693C420.122 331.599 420.122 331.601 420.165 331.7C420.146 331.653 420.129 331.607 420.111 331.56C420.045 331.385 419.99 331.206 419.943 331.025C419.894 330.844 419.859 330.661 419.825 330.475C419.809 330.373 419.809 330.378 419.827 330.491C419.819 330.443 419.815 330.393 419.809 330.344C419.8 330.244 419.793 330.145 419.789 330.045C419.781 329.845 419.784 329.646 419.796 329.447C419.802 329.347 419.812 329.248 419.824 329.15C419.798 329.381 419.842 329.059 419.85 329.018C419.935 328.56 419.723 328.03 419.225 327.917C418.785 327.816 418.216 328.05 418.124 328.542Z" fill="#1B1C1D"/>
<path d="M417.604 370.226C414.203 365.529 408.505 362.88 402.759 362.101C397.013 361.322 391.172 362.224 385.509 363.473C366.4 367.683 348.184 375.902 332.383 387.442C323.291 394.082 314.447 402.061 303.372 404.083C299.574 404.776 295.157 404.985 292.814 408.054C291.106 410.294 286.204 413.516 286.947 416.232C289.476 425.47 294.718 439.942 303.408 443.969C314.129 448.935 334.254 444.088 345.946 445.794C357.636 447.501 369.896 446.637 380.707 441.874C389.157 438.151 399.872 432.822 406.661 426.563C413.213 420.524 416.077 413.38 420.177 405.468C424.275 397.556 425.958 388.026 422.964 379.633" fill="#3D907E"/>
<path d="M264.195 404.453C269.65 397.217 279.307 382.564 286.374 376.894C293.44 371.223 302.318 367.279 311.357 367.906C320.396 368.533 330.918 372.621 333.238 381.379C333.765 380.746 332.709 382.012 333.238 381.379L338.966 396.224L310.164 413.564L271.456 430.005C267.021 431.539 262.484 433.091 257.79 433.111C253.096 433.131 248.131 431.344 245.524 427.441C243.837 424.917 243.301 421.821 242.805 418.827C241.371 410.158 239.934 401.488 238.5 392.819C238.151 390.717 237.851 388.377 239.044 386.611C241.041 383.656 246.394 382.413 249.858 383.269C253.865 384.26 255.48 387.727 257.961 392.757C261.623 400.189 264.195 404.453 264.195 404.453Z" fill="#3D907E"/>
<path d="M275.234 390.71C280.592 380.427 289.861 371.858 301.434 369.419C313.18 366.944 326.148 371.166 332.403 381.804C335.632 387.299 336.818 393.873 335.21 400.078C334.92 401.195 336.647 401.67 336.937 400.555C339.947 388.94 333.856 376.365 323.449 370.703C312.04 364.496 297.803 366.331 287.431 373.739C281.617 377.89 276.981 383.487 273.689 389.806C273.157 390.826 274.702 391.732 275.234 390.71Z" fill="#1B1C1D"/>
<path d="M295.711 441.078C312.713 451.315 333.958 451.285 353.134 449.77C363.66 448.938 374.209 447.123 383.994 443.029C391.868 439.734 399.103 434.98 405.317 429.133C412.545 422.335 418.343 414.072 422.225 404.939C422.671 403.891 421.13 402.979 420.68 404.036C413.948 419.868 401.398 432.985 385.801 440.284C376.593 444.593 366.492 446.678 356.426 447.686C346.807 448.648 336.993 448.978 327.344 448.289C316.61 447.523 305.914 445.13 296.615 439.531C295.625 438.935 294.725 440.483 295.711 441.078Z" fill="#1B1C1D"/>
<path d="M340.896 365.844C342.01 364.041 339.635 361.718 338.641 359.846C337.646 357.974 336.128 356.443 334.888 354.725C330.745 348.99 329.958 341.004 332.9 334.569C332.654 333.179 333.291 331.671 334.461 330.878C335.629 330.085 337.266 330.05 338.468 330.794C337.891 329.12 339.604 327.229 341.37 327.381C343.134 327.531 344.336 328.256 344.287 330.026C344.366 329.22 345.835 328.789 346.603 329.052C347.37 329.315 347.837 330.631 347.707 331.925C347.625 332.731 347.783 333.54 347.741 334.351C347.651 336.102 347.803 337.866 348.189 339.577C348.454 340.752 348.875 341.969 349.809 342.728C350.744 343.488 352.322 343.555 353.034 342.585C353.836 341.491 353.171 339.791 353.956 338.684C354.761 337.549 356.671 337.834 357.559 338.904C358.448 339.974 358.569 341.473 358.546 342.864C358.487 346.435 356.897 351.631 354.516 354.746L356.651 360.702L340.896 365.844Z" fill="#F9AD8E"/>
<path d="M341.67 366.297C342.891 363.725 340.648 361.494 339.413 359.395C337.594 356.302 334.941 353.853 333.545 350.492C332.183 347.203 331.72 343.547 332.233 340.023C332.36 339.144 332.546 338.273 332.795 337.419C333.039 336.583 333.545 335.751 333.717 334.915C333.888 334.094 333.689 333.265 334.161 332.48C334.976 331.123 336.688 330.881 338.016 331.567C338.722 331.93 339.503 331.332 339.331 330.556C338.758 327.982 343.293 327.394 343.392 330.026C343.431 331.039 344.84 331.236 345.151 330.264C345.28 330.024 345.493 329.901 345.792 329.894C346.558 330.132 346.906 330.624 346.832 331.372C346.868 331.946 346.802 332.559 346.815 333.136C346.846 334.638 346.786 336.136 346.959 337.633C347.191 339.642 347.586 342.218 349.358 343.501C350.624 344.417 352.604 344.509 353.667 343.218C354.329 342.411 354.218 341.588 354.395 340.639C354.603 339.538 354.893 338.487 356.185 339.017C357.016 339.358 357.357 340.176 357.53 341.002C358.038 343.414 357.351 346.177 356.624 348.47C356.226 349.725 355.737 350.947 355.122 352.11C354.715 352.879 353.668 353.869 353.621 354.746C353.57 355.664 354.358 356.953 354.66 357.796C355.037 358.845 355.412 359.892 355.788 360.94C355.997 360.573 356.204 360.205 356.413 359.839C351.162 361.553 345.909 363.267 340.658 364.981C339.569 365.337 340.036 367.066 341.134 366.708C346.386 364.994 351.637 363.279 356.889 361.564C357.322 361.424 357.683 360.937 357.515 360.465C357.178 359.527 356.842 358.589 356.505 357.652C356.241 356.917 355.303 355.351 355.399 354.567C355.339 355.064 355.888 354.345 356.005 354.159C356.289 353.71 356.549 353.246 356.791 352.772C357.29 351.796 357.718 350.779 358.083 349.746C358.811 347.691 359.322 345.503 359.425 343.319C359.509 341.55 359.375 339.448 358.044 338.122C357.012 337.094 355.216 336.676 353.94 337.504C353.348 337.888 352.988 338.456 352.796 339.128C352.485 340.213 352.6 343.211 350.638 342.207C348.189 340.954 348.679 335.963 348.638 333.742C348.605 332.031 348.997 329.19 347.055 328.279C345.725 327.656 343.866 328.404 343.424 329.788C344.009 329.868 344.596 329.947 345.182 330.026C344.985 324.792 336.454 325.859 337.604 331.031C338.042 330.695 338.48 330.358 338.919 330.022C335.976 328.501 332.509 330.02 331.996 333.4C331.728 335.172 331.027 336.788 330.672 338.566C330.292 340.468 330.158 342.42 330.295 344.353C330.554 348.022 331.721 351.667 333.795 354.719C334.982 356.469 336.483 357.986 337.584 359.796C338.36 361.07 340.862 363.839 340.123 365.393C339.632 366.427 341.174 367.337 341.67 366.297Z" fill="#F35C61"/>
<path d="M345.238 341.258C343.588 337.963 343.376 333.802 345.06 330.478C345.579 329.453 344.035 328.545 343.514 329.575C341.526 333.502 341.741 338.264 343.692 342.162C344.207 343.192 345.752 342.287 345.238 341.258Z" fill="#F35C61"/>
<path d="M339.386 341.895C338.313 338.304 338.304 334.375 339.499 330.813C339.867 329.718 338.138 329.249 337.773 330.337C336.484 334.182 336.503 338.496 337.66 342.37C337.988 343.471 339.716 343.003 339.386 341.895Z" fill="#F35C61"/>
<path d="M334.671 342.728C334.154 341.575 333.876 340.17 333.737 338.879C333.594 337.545 333.55 336.08 333.763 334.809C333.842 334.332 333.637 333.845 333.137 333.708C332.709 333.589 332.117 333.852 332.038 334.332C331.779 335.88 331.784 337.456 331.963 339.013C332.144 340.603 332.469 342.166 333.125 343.631C333.322 344.072 333.964 344.178 334.349 343.952C334.803 343.687 334.869 343.172 334.671 342.728Z" fill="#F35C61"/>
<path d="M338.535 360.665C338.639 366.552 338.752 372.501 340.203 378.207C341.655 383.914 344.591 389.44 349.355 392.899C352.684 395.316 356.691 396.591 360.661 397.675C367.993 399.678 375.637 401.173 383.169 400.165C390.703 399.157 398.175 395.292 401.947 388.693C403.604 385.794 404.488 382.487 404.726 379.156C404.966 375.813 404.395 372.092 401.859 369.9C399.728 368.057 396.71 367.715 393.893 367.636C387.324 367.453 380.772 368.244 374.249 369.037C371.541 369.364 368.832 369.692 366.124 370.022C365.471 370.1 364.781 370.175 364.179 369.91C363.681 369.691 363.309 369.267 362.96 368.85C359.77 365.034 359.539 359.532 357.737 354.896" fill="#3D907E"/>
<path d="M337.409 363.17C340.952 374.368 339.132 388.716 348.805 397.208C353.496 401.326 359.495 401.71 365.448 400.994C372.097 400.195 378.762 399.151 385.327 397.83C392.838 396.317 400.214 394.208 407.163 390.947C408.206 390.459 407.298 388.915 406.26 389.402C394.779 394.788 382.162 396.802 369.718 398.61C363.578 399.503 356.707 400.721 351.271 396.889C347.009 393.884 344.581 388.814 343.259 383.907C341.382 376.931 341.321 369.605 339.135 362.694C338.788 361.598 337.06 362.067 337.409 363.17Z" fill="#1B1C1D"/>
<path d="M362.986 381.385C364.417 377.56 364.739 373.412 363.999 369.403C363.789 368.272 362.064 368.75 362.271 369.878C362.955 373.579 362.577 377.391 361.26 380.909C360.855 381.989 362.585 382.456 362.986 381.385Z" fill="#1B1C1D"/>
<path d="M460.226 385.119L381.157 388.311L356.111 387.571L373.822 422.971C373.822 422.971 422.653 428.766 457.011 432.069C498.438 436.048 500.114 411.795 493.299 396.312C487.201 382.454 460.226 385.119 460.226 385.119Z" fill="#F9AD8E"/>
<path d="M372.73 388.303C401.437 389.497 430.13 385.639 458.838 385.725C466.392 385.747 473.959 386.019 481.467 386.901C482.609 387.035 482.6 385.244 481.467 385.111C467.607 383.484 453.553 383.793 439.634 384.331C424.807 384.906 410.002 385.942 395.172 386.447C387.695 386.701 380.207 386.823 372.73 386.513C371.578 386.465 371.579 388.255 372.73 388.303Z" fill="#F35C61"/>
<path d="M332.847 367.39C331.664 365.695 330.461 363.959 329.907 361.968C329.039 358.843 330.051 354.888 334.587 354.526C335.538 354.452 336.502 354.605 337.402 354.92C339.586 355.683 341.697 357.021 342.975 358.948C348.257 366.91 353.178 373.5 358.464 380.946C360.582 383.929 363.913 385.904 367.566 386.103C368.942 386.178 369.788 385.99 369.788 385.99C371.699 384.485 370.963 380.79 370.264 378.29C369.784 376.57 369.028 374.938 368.025 373.46C365.978 370.438 363.131 366.681 364.014 362.618C364.415 360.774 365.703 359.149 367.534 358.695C370.143 358.047 372.195 359.979 373.906 361.761C378.868 366.927 383.83 372.094 388.792 377.259C393 381.641 397.314 386.189 399.456 391.874C401.384 396.989 401.382 402.671 400.37 408.044C399.358 413.415 414.534 412.648 412.565 417.747C411.647 420.123 426.72 428.086 424.443 429.225C422.551 430.171 389.856 428.575 387.764 428.26C379.247 426.979 368.482 426.029 360.742 422.245C349.27 416.636 340.18 407.64 333.155 396.976C331.884 395.049 330.619 393.041 330.182 390.775C329.745 388.51 330.318 385.901 332.165 384.518C330.298 382.643 328.404 380.731 327.163 378.393C325.923 376.056 325.413 373.188 326.443 370.749C327.471 368.312 330.325 366.589 332.847 367.39Z" fill="#F9AD8E"/>
<path d="M352.885 393C345.523 385.505 335.22 373.606 329.147 362.629L352.885 393Z" fill="#F9AD8E"/>
<path d="M353.518 392.366C344.618 383.283 336.133 373.322 329.92 362.178C329.358 361.172 327.812 362.074 328.375 363.082C334.657 374.349 343.253 384.447 352.252 393.632C353.06 394.456 354.325 393.19 353.518 392.366Z" fill="#F35C61"/>
<path d="M345.092 401.25C339.242 395.063 333.491 387.591 327.958 381.134L345.092 401.25Z" fill="#F9AD8E"/>
<path d="M345.725 400.618C339.681 394.203 334.316 387.194 328.591 380.501C327.841 379.625 326.579 380.896 327.325 381.767C333.05 388.459 338.414 395.468 344.459 401.884C345.251 402.724 346.514 401.457 345.725 400.618Z" fill="#F35C61"/>
<path d="M431.043 428.521C414.971 428.576 398.819 427.476 382.863 425.576C376.848 424.86 370.761 424.092 364.879 422.602C357.989 420.856 351.796 416.251 346.514 411.659C342.4 408.08 338.652 404.057 335.383 399.694C332.748 396.177 326.798 389.365 331.578 385.548C331.961 385.241 331.883 384.599 331.578 384.281C329.396 382.01 326.616 378.533 326.074 375.347C325.544 372.241 327.255 366.558 331.378 367.602C332.084 367.781 332.854 366.956 332.389 366.287C330.894 364.139 329.161 361.742 329.299 358.995C329.45 355.938 332.084 354.307 334.972 354.868C337.549 355.369 339.053 357.466 340.425 359.514C341.8 361.564 343.219 363.583 344.715 365.548C347.154 368.751 349.773 371.81 352.293 374.949C355.249 378.631 357.807 382.731 361.878 385.303C363.959 386.617 367.292 388.231 369.769 387.035C372.929 385.51 371.081 380.866 370.271 378.479C369.578 376.443 368.893 374.548 367.746 372.708C366.367 370.497 364.677 368.392 363.897 365.869C363.151 363.457 363.542 360.064 366.254 359.035C368.998 357.994 371.339 361.009 373.003 362.741C377.564 367.491 382.126 372.24 386.687 376.99C390.85 381.326 395.133 385.772 397.362 391.46C397.778 392.52 399.51 392.059 399.088 390.983C397.083 385.871 393.607 381.691 389.876 377.739C385.593 373.198 381.233 368.728 376.91 364.226C374.189 361.392 370.136 355.432 365.448 357.42C360.847 359.369 361.301 365.085 363.181 368.767C364.41 371.173 366.218 373.242 367.368 375.691C368.319 377.717 369.124 380.179 369.563 382.378C369.741 383.266 370.023 384.704 369.162 385.339C368.631 385.732 367.729 385.64 367.126 385.552C365.176 385.262 363.33 384.217 361.763 383.064C359.406 381.33 357.731 379.02 355.959 376.731C354.371 374.677 352.74 372.66 351.091 370.653C348.023 366.923 345.033 363.158 342.332 359.149C340.918 357.048 339.495 354.798 337.114 353.691C335.117 352.761 332.623 352.69 330.643 353.694C328.554 354.753 327.506 356.973 327.498 359.255C327.488 362.25 329.198 364.826 330.844 367.19C331.18 366.752 331.517 366.313 331.853 365.874C327.417 364.752 324.679 369.071 324.237 372.956C323.704 377.657 327.221 382.33 330.312 385.548C330.312 385.125 330.312 384.702 330.312 384.281C326.722 387.15 327.906 391.413 329.969 394.905C332.51 399.213 335.692 403.235 339.073 406.913C342.41 410.54 346.087 413.85 350.056 416.772C353.414 419.244 357.088 421.715 360.979 423.267C366.052 425.291 371.855 425.897 377.22 426.64C385.453 427.781 393.736 428.572 402.024 429.176C411.677 429.881 421.362 430.345 431.043 430.311C432.195 430.309 432.198 428.519 431.043 428.521Z" fill="#F35C61"/>
<path d="M337.818 425.529L268.304 372.426L307.204 237.182C275.872 243.327 261.371 239.618 245.191 278.599C245.191 278.599 227.496 334.828 218.554 365.275C212.948 384.361 217.043 404.287 240.557 419.413C251.327 426.342 327.434 459.486 327.434 459.486L337.818 425.529Z" fill="#F9AD8E"/>
<path d="M249.254 379.501C254.1 375.236 260.846 373.34 267.204 374.485C268.331 374.687 268.814 372.963 267.68 372.758C260.654 371.494 253.349 373.517 247.99 378.236C247.123 378.999 248.392 380.26 249.254 379.501Z" fill="#F35C61"/>
<path d="M402.823 431.227C404.706 430.373 406.628 429.494 408.12 428.065C409.612 426.636 410.62 424.527 410.193 422.504C409.715 420.24 407.54 418.636 405.273 418.178C403.005 417.72 400.509 417.792 398.425 418.797C388.828 423.424 384.037 425.227 374.511 429.521C367.553 432.368 364.13 430.45 363.2 428.035C362.27 425.621 363.546 422.925 365.439 421.161C367.333 419.397 371.315 418.485 373.629 417.328C375.944 416.171 376.746 414.627 377.971 412.347C379.195 410.068 376.97 408.315 374.76 406.966C372.923 405.843 364.313 404.864 362.236 405.438C355.332 407.347 355.972 407.873 349.068 409.783C343.215 411.401 337.354 416.585 332.609 420.379C328.34 423.793 325.88 426.57 324.008 431.707C322.136 436.843 321.217 442.268 320.307 447.659C319.883 450.169 319.508 452.949 320.884 455.091C322.028 456.87 324.109 457.767 326.068 458.564C334.047 461.811 342.18 465.098 350.767 465.795C363.496 466.83 375.968 462.091 387.453 456.507C389.529 455.499 391.643 454.421 393.176 452.696C394.708 450.97 395.547 448.434 394.665 446.302C397.228 445.643 399.833 444.967 402.093 443.589C404.352 442.213 406.255 440.007 406.615 437.384C406.974 434.764 405.401 431.825 402.823 431.227Z" fill="#F9AD8E"/>
<path d="M333.335 420.581C338.947 416.214 344.621 411.809 351.06 408.791C357.502 405.775 364.868 404.221 371.79 405.85C374.886 406.578 378.307 408.607 378.32 411.786C378.331 414.656 375.515 416.71 372.804 417.651C370.093 418.592 367.069 419.006 364.897 420.881C362.357 423.07 361.859 427.567 364.442 429.7C367.312 432.072 371.581 430.466 374.955 428.896C382.414 425.419 390.141 422.517 398.044 420.223C399.895 419.685 401.809 419.177 403.725 419.377C405.643 419.578 408.021 419.672 409.462 422.552C410.83 425.288 408.12 428.065 406.194 429.521L402.348 431.486C391.522 437.823 384.75 440.445 372.969 444.752" fill="#F9AD8E"/>
<path d="M333.968 421.214C343.905 413.483 355.344 404.825 368.711 406.227C371.458 406.515 375.028 407.247 376.716 409.691C378.718 412.591 375.984 415.29 373.412 416.445C369.088 418.386 363.221 418.535 362.014 424.169C361.009 428.858 364.647 432.275 369.245 431.711C371.75 431.403 374.048 430.287 376.315 429.248C379.378 427.843 382.487 426.539 385.634 425.334C388.751 424.142 391.904 423.046 395.087 422.049C398.136 421.095 401.227 419.951 404.464 420.348C407.331 420.7 410.126 423.003 408.286 426.063C407.269 427.754 405.809 428.715 404.12 429.577C399.515 431.929 395.1 434.61 390.413 436.813C384.662 439.515 378.694 441.708 372.73 443.889C371.657 444.281 372.121 446.012 373.206 445.615C378.823 443.56 384.443 441.491 389.892 439.017C394.69 436.837 399.163 434.115 403.844 431.725C406.948 430.14 411.498 427.485 410.646 423.279C409.529 417.765 402.531 418.048 398.425 419.182C391.613 421.064 384.938 423.534 378.459 426.344C375.456 427.645 372.417 429.484 369.129 429.922C365.547 430.4 362.817 427.839 363.85 424.197C364.818 420.78 368.38 419.916 371.386 419.032C373.886 418.297 376.418 417.295 378.038 415.14C381.322 410.769 377.128 406.555 372.963 405.245C366.157 403.102 358.438 404.65 352.046 407.378C344.923 410.418 338.77 415.228 332.702 419.948C331.794 420.655 333.069 421.913 333.968 421.214Z" fill="#F35C61"/>
<path d="M403.923 431.601C404.48 432.285 405.169 433.504 405.502 434.483C406.18 436.468 405.643 438.299 404.483 439.993C403.039 442.1 400.805 442.882 398.617 444.067C391.211 448.076 383.501 451.932 375.387 454.284C374.283 454.604 374.753 456.331 375.864 456.011C380.447 454.681 384.867 452.818 389.19 450.814C393.495 448.817 397.818 446.711 401.907 444.298C404.216 442.936 405.951 441.606 407.039 438.985C408.299 435.948 407.185 432.788 405.187 430.334C404.46 429.441 403.201 430.714 403.923 431.601Z" fill="#F35C61"/>
<path d="M268.569 373.915C274.881 355.215 281.195 336.514 287.507 317.814C287.876 316.72 286.148 316.25 285.782 317.338C279.468 336.039 273.156 354.739 266.842 373.44C266.472 374.532 268.201 375.002 268.569 373.915Z" fill="#F35C61"/>
<path d="M263.219 250.454L287.455 321.16L310.213 307.1L270.161 245.1C270.161 245.1 265.11 243.778 263.219 250.454Z" fill="white"/>
<path d="M170.209 337.53C185.043 343.14 203.142 337.444 212.917 324.089C198.771 317.013 180.518 323.245 170.209 337.53Z" fill="#3D907E"/>
<path d="M145.337 125.811L150.686 128.576C151.673 129.088 151.705 130.485 150.744 131.041L145.529 134.054C145.296 134.188 145.108 134.386 144.984 134.625L142.219 139.975C141.708 140.961 140.309 140.995 139.753 140.032L136.741 134.817C136.607 134.585 136.409 134.396 136.17 134.273L130.82 131.508C129.834 130.998 129.801 129.599 130.763 129.043L135.978 126.03C136.21 125.896 136.399 125.698 136.523 125.459L139.288 120.109C139.798 119.122 141.197 119.091 141.752 120.052L144.765 125.267C144.9 125.499 145.097 125.688 145.337 125.811Z" fill="white"/>
<path d="M64.3756 510.343L66.5553 511.47C66.9578 511.679 66.9711 512.247 66.5793 512.472L64.4548 513.699C64.3597 513.756 64.282 513.837 64.2319 513.935L63.1052 516.113C62.8975 516.517 62.3273 516.528 62.1012 516.139L60.8733 514.011C60.8186 513.919 60.7378 513.843 60.6406 513.791L58.4604 512.661C58.0589 512.457 58.0451 511.884 58.4369 511.659L60.5618 510.432C60.657 510.378 60.7342 510.296 60.7843 510.199L61.911 508.019C62.1191 507.617 62.6889 507.604 62.9154 507.995L64.1429 510.12C64.1981 510.216 64.2784 510.292 64.3756 510.343Z" fill="white"/>
<path d="M579.796 292.959L581.975 294.086C582.379 294.293 582.389 294.863 582.001 295.089L579.873 296.317C579.781 296.371 579.704 296.453 579.653 296.55L578.528 298.73C578.318 299.132 577.746 299.145 577.52 298.753L576.293 296.629C576.242 296.533 576.16 296.456 576.063 296.406L573.879 295.278C573.48 295.071 573.465 294.501 573.859 294.274L575.981 293.048C576.078 292.993 576.155 292.911 576.206 292.814L577.331 290.635C577.541 290.232 578.109 290.219 578.334 290.612L579.561 292.737C579.617 292.831 579.699 292.908 579.796 292.959Z" fill="white"/>
<path d="M100.583 527.733L105.933 530.5C106.919 531.006 106.951 532.407 105.99 532.96L100.775 535.972C100.543 536.11 100.354 536.304 100.231 536.545L97.465 541.894C96.9551 542.881 95.5558 542.912 95.0004 541.951L91.9881 536.739C91.8541 536.504 91.6552 536.315 91.4163 536.192L86.0673 533.425C85.0802 532.919 85.048 531.517 86.0095 530.965L91.224 527.948C91.4567 527.815 91.646 527.615 91.7697 527.38L94.5345 522.03C95.0444 521.043 96.4437 521.013 96.9991 521.969L100.011 527.186C100.146 527.421 100.344 527.605 100.583 527.733Z" fill="white"/>
<path d="M590.879 139.554L596.229 142.321C597.216 142.829 597.246 144.228 596.285 144.784L591.073 147.797C590.838 147.931 590.649 148.129 590.526 148.368L587.759 153.718C587.253 154.705 585.852 154.738 585.299 153.775L582.282 148.561C582.149 148.328 581.949 148.139 581.714 148.016L576.365 145.251C575.378 144.741 575.347 143.342 576.303 142.786L581.52 139.773C581.755 139.639 581.944 139.441 582.067 139.202L584.834 133.852C585.34 132.866 586.742 132.834 587.294 133.795L590.306 139.009C590.444 139.242 590.639 139.431 590.879 139.554Z" fill="white"/>
<path d="M547.443 176.783C533.261 153.858 538.391 124.439 558.347 107.52C555.902 108.569 553.504 109.807 551.172 111.248C525.917 126.872 518.108 160.01 533.727 185.267C549.351 210.522 582.492 218.332 607.746 202.709C610.078 201.268 612.257 199.673 614.287 197.954C590.235 208.256 561.625 199.709 547.443 176.783Z" fill="#CDD3B1"/>
<path d="M229.484 111.554L234.834 114.32C235.82 114.829 235.853 116.23 234.891 116.785L229.677 119.797C229.445 119.932 229.255 120.129 229.131 120.368L226.366 125.718C225.857 126.705 224.457 126.738 223.902 125.776L220.889 120.562C220.756 120.328 220.557 120.139 220.317 120.016L214.969 117.251C213.982 116.741 213.95 115.342 214.91 114.786L220.126 111.773C220.358 111.639 220.548 111.44 220.671 111.202L223.437 105.852C223.946 104.865 225.345 104.833 225.901 105.795L228.912 111.009C229.047 111.242 229.246 111.431 229.484 111.554Z" fill="#CDD3B1"/>
<path d="M578.794 255.886L584.144 258.65C585.131 259.16 585.166 260.56 584.205 261.115L578.988 264.127C578.753 264.261 578.569 264.46 578.441 264.698L575.679 270.048C575.168 271.035 573.772 271.067 573.214 270.105L570.202 264.891C570.064 264.659 569.87 264.469 569.629 264.346L564.28 261.58C563.293 261.07 563.262 259.672 564.223 259.116L569.44 256.103C569.67 255.97 569.859 255.771 569.982 255.533L572.749 250.183C573.26 249.197 574.657 249.163 575.214 250.124L578.226 255.34C578.359 255.572 578.559 255.762 578.794 255.886Z" fill="#CDD3B1"/>
<path d="M642.636 416.729L647.985 419.496C648.972 420.006 649.003 421.405 648.041 421.96L642.83 424.972C642.595 425.107 642.405 425.304 642.283 425.543L639.516 430.893C639.01 431.88 637.608 431.913 637.051 430.95L634.038 425.737C633.905 425.503 633.711 425.314 633.471 425.191L628.121 422.426C627.134 421.916 627.098 420.517 628.06 419.961L633.276 416.948C633.512 416.814 633.701 416.616 633.824 416.377L636.585 411.027C637.097 410.04 638.498 410.009 639.05 410.97L642.063 416.185C642.201 416.417 642.395 416.606 642.636 416.729Z" fill="#CDD3B1"/>
<path d="M78.7283 452.509L84.0773 455.274C85.0639 455.784 85.0971 457.183 84.1351 457.739L78.9206 460.752C78.6879 460.887 78.4987 461.084 78.3754 461.323L75.6101 466.672C75.0997 467.658 73.7009 467.691 73.1455 466.73L70.1332 461.515C69.9982 461.283 69.8008 461.094 69.5614 460.969L64.2124 458.204C63.2259 457.694 63.1931 456.296 64.1546 455.74L69.3691 452.728C69.6018 452.594 69.7911 452.395 69.9143 452.157L72.6801 446.807C73.19 445.82 74.5888 445.787 75.1442 446.75L78.1565 451.964C78.2915 452.197 78.4889 452.386 78.7283 452.509Z" fill="#CDD3B1"/>
<path d="M122.34 328.236L127.689 331.001C128.676 331.511 128.708 332.91 127.747 333.466L122.532 336.477C122.299 336.612 122.11 336.811 121.986 337.048L119.222 342.398C118.712 343.385 117.312 343.418 116.757 342.456L113.745 337.242C113.61 337.008 113.412 336.819 113.173 336.696L107.824 333.931C106.837 333.421 106.805 332.022 107.766 331.467L112.981 328.454C113.213 328.319 113.403 328.121 113.525 327.882L116.291 322.532C116.801 321.547 118.2 321.514 118.756 322.475L121.768 327.69C121.902 327.922 122.101 328.112 122.34 328.236Z" fill="#CDD3B1"/>
<path d="M205.807 101.5L207.667 102.463C208.011 102.639 208.023 103.125 207.687 103.319L205.875 104.367C205.793 104.413 205.727 104.482 205.684 104.565L204.723 106.426C204.545 106.768 204.058 106.78 203.865 106.446L202.818 104.632C202.771 104.552 202.703 104.486 202.619 104.443L200.759 103.48C200.416 103.303 200.404 102.818 200.739 102.624L202.552 101.576C202.634 101.529 202.698 101.46 202.741 101.377L203.704 99.5168C203.881 99.1732 204.368 99.1629 204.561 99.4969L205.608 101.311C205.655 101.391 205.724 101.457 205.807 101.5Z" fill="#CDD3B1"/>
<path d="M589.667 244.031L591.523 244.994C591.866 245.17 591.881 245.657 591.544 245.85L589.733 246.898C589.652 246.944 589.585 247.013 589.544 247.096L588.583 248.957C588.404 249.3 587.918 249.311 587.723 248.977L586.675 247.163C586.629 247.083 586.563 247.017 586.476 246.974L584.619 246.012C584.271 245.835 584.261 245.349 584.599 245.155L586.409 244.107C586.491 244.06 586.557 243.991 586.598 243.908L587.56 242.048C587.739 241.704 588.225 241.694 588.419 242.028L589.467 243.842C589.513 243.923 589.58 243.988 589.667 244.031Z" fill="#CDD3B1"/>
<path d="M138.622 248.114C140.667 233.122 128.084 217.768 112.982 216.828C97.8803 215.888 83.4902 229.564 83.6595 244.693C79.7179 241.618 71.8071 240.958 67.2661 243.05C62.7247 245.141 57.1245 252.988 61.5335 262.115H164.424C166.452 249.947 147.709 241.54 138.622 248.114Z" fill="#CDD3B1"/>
<path d="M167.222 195.202C168.433 186.313 160.973 177.21 152.02 176.652C143.064 176.095 134.533 184.202 134.634 193.174C132.296 191.351 127.606 190.96 124.913 192.199C122.221 193.44 118.9 198.093 121.514 203.503H182.52C183.723 196.288 172.609 191.304 167.222 195.202Z" fill="#CDD3B1"/>
<path d="M640.191 523.662C641.403 514.773 633.941 505.668 624.986 505.111C616.031 504.553 607.5 512.661 607.603 521.632C605.266 519.811 600.576 519.417 597.88 520.66C595.19 521.898 591.871 526.552 594.485 531.962H655.488C656.69 524.746 645.576 519.765 640.191 523.662Z" fill="#CDD3B1"/>
<path d="M607.424 322.714C608.636 313.824 601.174 304.721 592.224 304.164C583.269 303.607 574.738 311.715 574.836 320.685C572.498 318.862 567.808 318.471 565.118 319.711C562.423 320.952 559.104 325.604 561.717 331.015L622.721 331.014C623.928 323.8 612.814 318.816 607.424 322.714Z" fill="#CDD3B1"/>
<path d="M441.245 63.9229C442.456 55.0348 434.996 45.93 426.042 45.3729C417.087 44.8159 408.555 52.9236 408.657 61.8951C406.32 60.0724 401.629 59.6817 398.937 60.9203C396.245 62.1601 392.923 66.813 395.537 72.2245H456.543C457.744 65.0097 446.632 60.0253 441.245 63.9229Z" fill="#CDD3B1"/>
<path d="M205.669 130.949C206.883 122.061 199.422 112.956 190.467 112.399C181.513 111.842 172.982 119.95 173.082 128.921C170.745 127.099 166.055 126.706 163.361 127.947C160.669 129.186 157.348 133.84 159.963 139.251H220.968C222.171 132.036 211.058 127.052 205.669 130.949Z" fill="#DDE3C2"/>
</svg>
