<svg width="14" height="17" viewBox="0 0 14 17" fill="none" xmlns="http://www.w3.org/2000/svg">
<path d="M8.64635 0.791424C7.7458 -0.138644 6.25416 -0.138645 5.35361 0.791419L0.955012 5.33417C0.702393 5.59507 0.53264 5.9249 0.467138 6.2821C-0.0670578 9.19524 -0.10649 12.1776 0.350499 15.1038L0.512294 16.1398C0.563397 16.4671 0.845238 16.7083 1.17644 16.7083H4.24998C4.50311 16.7083 4.70832 16.5031 4.70832 16.25V9.83331H9.29165V16.25C9.29165 16.5031 9.49685 16.7083 9.74998 16.7083H12.8235C13.1547 16.7083 13.4365 16.4671 13.4876 16.1398L13.6494 15.1038C14.1064 12.1776 14.067 9.19524 13.5328 6.2821C13.4673 5.9249 13.2975 5.59507 13.0449 5.33418L8.64635 0.791424Z" fill="#598BED"/>
</svg>
