<svg width="22" height="22" viewBox="0 0 22 22" fill="none" xmlns="http://www.w3.org/2000/svg">
<path fill-rule="evenodd" clip-rule="evenodd" d="M8.18506 4.0978C7.01978 3.96756 5.81353 3.96756 4.64825 4.0978C4.3651 4.12945 4.1418 4.35365 4.10995 4.62596C3.9708 5.81574 3.9708 7.01768 4.10995 8.20746C4.1418 8.47976 4.3651 8.70397 4.64825 8.73562C5.81353 8.86585 7.01978 8.86585 8.18506 8.73562C8.46821 8.70397 8.69151 8.47976 8.72336 8.20746C8.86251 7.01768 8.86251 5.81574 8.72336 4.62596C8.69151 4.35365 8.46821 4.12945 8.18506 4.0978ZM4.49552 2.73131C5.76231 2.58973 7.071 2.58973 8.33779 2.73131C9.24606 2.83282 9.98163 3.54781 10.089 4.46623C10.2406 5.76213 10.2406 7.07128 10.089 8.36719C9.98163 9.28561 9.24606 10.0006 8.33779 10.1021C7.071 10.2437 5.76231 10.2437 4.49552 10.1021C3.58725 10.0006 2.85168 9.28561 2.74426 8.36719C2.59269 7.07128 2.59269 5.76213 2.74426 4.46623C2.85168 3.54781 3.58725 2.83282 4.49552 2.73131Z" fill="#6D747A"/>
<path fill-rule="evenodd" clip-rule="evenodd" d="M8.18506 13.2645C7.01978 13.1342 5.81353 13.1342 4.64825 13.2645C4.3651 13.2961 4.1418 13.5203 4.10995 13.7926C3.9708 14.9824 3.9708 16.1843 4.10995 17.3741C4.1418 17.6464 4.3651 17.8706 4.64825 17.9023C5.81353 18.0325 7.01978 18.0325 8.18506 17.9023C8.46821 17.8706 8.69151 17.6464 8.72336 17.3741C8.86251 16.1843 8.86251 14.9824 8.72336 13.7926C8.69151 13.5203 8.46821 13.2961 8.18506 13.2645ZM4.49552 11.898C5.76231 11.7564 7.071 11.7564 8.33779 11.898C9.24606 11.9995 9.98163 12.7145 10.089 13.6329C10.2406 14.9288 10.2406 16.238 10.089 17.5339C9.98163 18.4523 9.24606 19.1673 8.33779 19.2688C7.071 19.4104 5.76231 19.4104 4.49552 19.2688C3.58725 19.1673 2.85168 18.4523 2.74426 17.5339C2.59269 16.238 2.59269 14.9288 2.74426 13.6329C2.85168 12.7145 3.58725 11.9995 4.49552 11.898Z" fill="#6D747A"/>
<path fill-rule="evenodd" clip-rule="evenodd" d="M17.3517 4.0978C16.1864 3.96756 14.9802 3.96756 13.8149 4.0978C13.5318 4.12945 13.3085 4.35365 13.2766 4.62596C13.1375 5.81574 13.1375 7.01768 13.2766 8.20746C13.3085 8.47976 13.5318 8.70397 13.8149 8.73562C14.9802 8.86585 16.1864 8.86585 17.3517 8.73562C17.6349 8.70397 17.8582 8.47976 17.89 8.20746C18.0292 7.01768 18.0292 5.81574 17.89 4.62596C17.8582 4.35365 17.6349 4.12945 17.3517 4.0978ZM13.6622 2.73131C14.929 2.58973 16.2377 2.58973 17.5045 2.73131C18.4127 2.83282 19.1483 3.54781 19.2557 4.46623C19.4073 5.76213 19.4073 7.07128 19.2557 8.36719C19.1483 9.28561 18.4127 10.0006 17.5045 10.1021C16.2377 10.2437 14.929 10.2437 13.6622 10.1021C12.7539 10.0006 12.0183 9.28561 11.9109 8.36719C11.7594 7.07128 11.7594 5.76213 11.9109 4.46623C12.0183 3.54781 12.7539 2.83282 13.6622 2.73131Z" fill="#6D747A"/>
<path fill-rule="evenodd" clip-rule="evenodd" d="M17.3517 13.2645C16.1864 13.1342 14.9802 13.1342 13.8149 13.2645C13.5318 13.2961 13.3085 13.5203 13.2766 13.7926C13.1375 14.9824 13.1375 16.1843 13.2766 17.3741C13.3085 17.6464 13.5318 17.8706 13.8149 17.9023C14.9802 18.0325 16.1864 18.0325 17.3517 17.9023C17.6349 17.8706 17.8582 17.6464 17.89 17.3741C18.0292 16.1843 18.0292 14.9824 17.89 13.7926C17.8582 13.5203 17.6349 13.2961 17.3517 13.2645ZM13.6622 11.898C14.929 11.7564 16.2377 11.7564 17.5045 11.898C18.4127 11.9995 19.1483 12.7145 19.2557 13.6329C19.4073 14.9288 19.4073 16.238 19.2557 17.5339C19.1483 18.4523 18.4127 19.1673 17.5045 19.2688C16.2377 19.4104 14.929 19.4104 13.6622 19.2688C12.7539 19.1673 12.0183 18.4523 11.9109 17.5339C11.7594 16.238 11.7594 14.9288 11.9109 13.6329C12.0183 12.7145 12.7539 11.9995 13.6622 11.898Z" fill="#6D747A"/>
</svg>
