<svg width="136" height="123" viewBox="0 0 136 123" fill="none" xmlns="http://www.w3.org/2000/svg">
<path fill-rule="evenodd" clip-rule="evenodd" d="M64.6961 9.64293C46.5583 -1.23688 24.3756 -3.01383 4.73623 4.83979C1.87571 5.98369 0 8.75343 0 11.8335V87.3183C0 92.3746 5.10816 95.8321 9.8041 93.9542C25.8867 87.5229 44.052 88.978 58.9051 97.8875L66.2573 102.298C66.818 102.634 67.4178 102.781 68 102.771C68.5822 102.781 69.182 102.634 69.7427 102.298L77.0949 97.8875C91.948 88.978 110.113 87.5229 126.196 93.9542C130.892 95.8321 136 92.3746 136 87.3183V11.8335C136 8.75343 134.124 5.98369 131.264 4.83979C111.624 -3.01383 89.4417 -1.23688 71.3039 9.64293L68 11.6247L64.6961 9.64293ZM72.8571 25.1116C72.8571 22.4298 70.6825 20.2558 68 20.2558C65.3175 20.2558 63.1429 22.4298 63.1429 25.1116V86.6188C63.1429 89.3007 65.3175 91.4747 68 91.4747C70.6825 91.4747 72.8571 89.3007 72.8571 86.6188V25.1116Z" fill="#598BED"/>
<path d="M7.93229 106.316C21.0392 98.672 37.2465 98.672 50.3534 106.316L57.3947 110.422C63.9482 114.244 72.0519 114.244 78.6053 110.422L85.6466 106.316C98.7535 98.672 114.961 98.672 128.068 106.316L128.733 106.704C131.05 108.055 131.833 111.028 130.481 113.345C129.13 115.661 126.155 116.444 123.838 115.092L123.173 114.704C113.091 108.825 100.624 108.825 90.5413 114.704L83.5 118.811C73.9219 124.396 62.0781 124.396 52.5 118.811L45.4587 114.704C35.3765 108.825 22.9093 108.825 12.827 114.704L12.1617 115.092C9.84455 116.444 6.87044 115.661 5.51879 113.345C4.16714 111.028 4.9498 108.055 7.26691 106.704L7.93229 106.316Z" fill="#598BED"/>
</svg>
