<svg width="155" height="169" viewBox="0 0 155 169" fill="none" xmlns="http://www.w3.org/2000/svg">
<path fill-rule="evenodd" clip-rule="evenodd" d="M76.3379 0.78886C77.4992 0.776783 78.4007 1.7972 78.2589 2.94989C75.8336 22.6782 76.3672 42.6703 79.8524 62.2632L80.0004 63.0948C80.1725 64.0624 80.921 64.825 81.8852 65.0151C82.8494 65.2052 83.8315 64.7838 84.358 63.954L99.5841 39.9563C99.9538 39.3736 100.801 39.3647 101.183 39.9396L116.905 63.6155C117.448 64.4342 118.439 64.8352 119.399 64.625C120.359 64.4149 121.091 63.6369 121.243 62.6659L121.374 61.8314C124.451 42.1703 124.569 22.1714 121.734 2.49779C121.568 1.34829 122.448 0.309356 123.609 0.297279L138.093 0.146659C145.988 0.0645596 152.455 6.39804 152.537 14.2929L154.023 157.242C154.078 162.505 149.856 166.816 144.592 166.871L34.9984 168.01C18.195 168.185 4.1644 155.904 1.68421 139.764L1.34643 139.767L0.355401 44.4683C0.109103 20.7837 19.1095 1.38398 42.7941 1.13769L76.3379 0.78886ZM34.4534 115.596L139.282 114.506L139.679 152.625L34.8498 153.715C24.3233 153.825 15.7012 145.38 15.5918 134.854C15.4823 124.327 23.9269 115.705 34.4534 115.596Z" fill="#598BED"/>
</svg>
